<mxfile host="65bd71144e" pages="4">
    <diagram name="router" id="VHiE4uWUK3bGSRmgRNOV">
        <mxGraphModel dx="2093" dy="873" grid="1" gridSize="10" guides="1" tooltips="1" connect="1" arrows="1" fold="1" page="1" pageScale="1" pageWidth="827" pageHeight="1169" math="0" shadow="0">
            <root>
                <mxCell id="0"/>
                <mxCell id="1" parent="0"/>
                <mxCell id="nJ76gcjRxf5y7iiIwIC3-13" value="" style="rounded=0;whiteSpace=wrap;html=1;" parent="1" vertex="1">
                    <mxGeometry x="480" y="420" width="170" height="110" as="geometry"/>
                </mxCell>
                <mxCell id="ZnL9BYDdkvqU1IApOcME-3" value="" style="edgeStyle=orthogonalEdgeStyle;rounded=0;orthogonalLoop=1;jettySize=auto;html=1;" parent="1" source="ZnL9BYDdkvqU1IApOcME-1" target="ZnL9BYDdkvqU1IApOcME-2" edge="1">
                    <mxGeometry relative="1" as="geometry"/>
                </mxCell>
                <mxCell id="ZnL9BYDdkvqU1IApOcME-1" value="RmipRuntimeClientImpl" style="rounded=0;whiteSpace=wrap;html=1;" parent="1" vertex="1">
                    <mxGeometry x="314" y="30" width="200" height="60" as="geometry"/>
                </mxCell>
                <mxCell id="ZnL9BYDdkvqU1IApOcME-12" value="" style="edgeStyle=orthogonalEdgeStyle;rounded=0;orthogonalLoop=1;jettySize=auto;html=1;" parent="1" source="ZnL9BYDdkvqU1IApOcME-2" target="ZnL9BYDdkvqU1IApOcME-11" edge="1">
                    <mxGeometry relative="1" as="geometry"/>
                </mxCell>
                <mxCell id="ZnL9BYDdkvqU1IApOcME-13" value="init" style="edgeLabel;html=1;align=center;verticalAlign=middle;resizable=0;points=[];" parent="ZnL9BYDdkvqU1IApOcME-12" vertex="1" connectable="0">
                    <mxGeometry x="-0.25" y="-3" relative="1" as="geometry">
                        <mxPoint x="-57" y="-13" as="offset"/>
                    </mxGeometry>
                </mxCell>
                <mxCell id="ZnL9BYDdkvqU1IApOcME-2" value="EngineRouter" style="rounded=0;whiteSpace=wrap;html=1;" parent="1" vertex="1">
                    <mxGeometry x="120" y="180" width="200" height="60" as="geometry"/>
                </mxCell>
                <mxCell id="ZnL9BYDdkvqU1IApOcME-8" value="" style="edgeStyle=orthogonalEdgeStyle;rounded=0;orthogonalLoop=1;jettySize=auto;html=1;" parent="1" source="ZnL9BYDdkvqU1IApOcME-4" target="ZnL9BYDdkvqU1IApOcME-7" edge="1">
                    <mxGeometry relative="1" as="geometry"/>
                </mxCell>
                <mxCell id="ZnL9BYDdkvqU1IApOcME-4" value="OssrsLiveRouter" style="rounded=0;whiteSpace=wrap;html=1;" parent="1" vertex="1">
                    <mxGeometry x="790" y="180" width="200" height="60" as="geometry"/>
                </mxCell>
                <mxCell id="ZnL9BYDdkvqU1IApOcME-5" value="" style="edgeStyle=orthogonalEdgeStyle;rounded=0;orthogonalLoop=1;jettySize=auto;html=1;entryX=0.5;entryY=0;entryDx=0;entryDy=0;exitX=0.5;exitY=1;exitDx=0;exitDy=0;" parent="1" source="ZnL9BYDdkvqU1IApOcME-1" target="ZnL9BYDdkvqU1IApOcME-4" edge="1">
                    <mxGeometry relative="1" as="geometry">
                        <mxPoint x="424" y="100" as="sourcePoint"/>
                        <mxPoint x="230" y="190" as="targetPoint"/>
                    </mxGeometry>
                </mxCell>
                <mxCell id="ZnL9BYDdkvqU1IApOcME-6" value="init" style="edgeLabel;html=1;align=center;verticalAlign=middle;resizable=0;points=[];" parent="ZnL9BYDdkvqU1IApOcME-5" vertex="1" connectable="0">
                    <mxGeometry x="-0.8108" y="1" relative="1" as="geometry">
                        <mxPoint x="-9" y="-24" as="offset"/>
                    </mxGeometry>
                </mxCell>
                <mxCell id="ZnL9BYDdkvqU1IApOcME-7" value="createInst" style="rounded=0;whiteSpace=wrap;html=1;" parent="1" vertex="1">
                    <mxGeometry x="790" y="320" width="90" height="60" as="geometry"/>
                </mxCell>
                <mxCell id="ZnL9BYDdkvqU1IApOcME-9" value="destroyInst" style="rounded=0;whiteSpace=wrap;html=1;" parent="1" vertex="1">
                    <mxGeometry x="900" y="320" width="90" height="60" as="geometry"/>
                </mxCell>
                <mxCell id="ZnL9BYDdkvqU1IApOcME-10" value="" style="edgeStyle=orthogonalEdgeStyle;rounded=0;orthogonalLoop=1;jettySize=auto;html=1;entryX=0.5;entryY=0;entryDx=0;entryDy=0;exitX=0.5;exitY=1;exitDx=0;exitDy=0;" parent="1" source="ZnL9BYDdkvqU1IApOcME-4" target="ZnL9BYDdkvqU1IApOcME-9" edge="1">
                    <mxGeometry relative="1" as="geometry">
                        <mxPoint x="900" y="250" as="sourcePoint"/>
                        <mxPoint x="845" y="330" as="targetPoint"/>
                    </mxGeometry>
                </mxCell>
                <mxCell id="nJ76gcjRxf5y7iiIwIC3-2" value="" style="edgeStyle=orthogonalEdgeStyle;rounded=0;orthogonalLoop=1;jettySize=auto;html=1;" parent="1" source="ZnL9BYDdkvqU1IApOcME-11" target="nJ76gcjRxf5y7iiIwIC3-1" edge="1">
                    <mxGeometry relative="1" as="geometry"/>
                </mxCell>
                <mxCell id="ZnL9BYDdkvqU1IApOcME-11" value="EngineCoordinator" style="rounded=0;whiteSpace=wrap;html=1;" parent="1" vertex="1">
                    <mxGeometry x="305" y="280" width="150" height="60" as="geometry"/>
                </mxCell>
                <mxCell id="ZnL9BYDdkvqU1IApOcME-14" value="RecyclableEngineCoordinator" style="rounded=0;whiteSpace=wrap;html=1;" parent="1" vertex="1">
                    <mxGeometry x="465" y="280" width="170" height="60" as="geometry"/>
                </mxCell>
                <mxCell id="ZnL9BYDdkvqU1IApOcME-15" value="" style="edgeStyle=orthogonalEdgeStyle;rounded=0;orthogonalLoop=1;jettySize=auto;html=1;entryX=0.541;entryY=0.017;entryDx=0;entryDy=0;entryPerimeter=0;exitX=0.5;exitY=1;exitDx=0;exitDy=0;" parent="1" source="ZnL9BYDdkvqU1IApOcME-2" target="ZnL9BYDdkvqU1IApOcME-14" edge="1">
                    <mxGeometry relative="1" as="geometry">
                        <mxPoint x="230" y="250" as="sourcePoint"/>
                        <mxPoint x="95" y="290" as="targetPoint"/>
                    </mxGeometry>
                </mxCell>
                <mxCell id="ZnL9BYDdkvqU1IApOcME-17" value="EngineTaskPoolManager" style="rounded=0;whiteSpace=wrap;html=1;" parent="1" vertex="1">
                    <mxGeometry x="145" y="280" width="150" height="60" as="geometry"/>
                </mxCell>
                <mxCell id="ZnL9BYDdkvqU1IApOcME-22" value="" style="edgeStyle=orthogonalEdgeStyle;rounded=0;orthogonalLoop=1;jettySize=auto;html=1;" parent="1" source="ZnL9BYDdkvqU1IApOcME-18" target="ZnL9BYDdkvqU1IApOcME-21" edge="1">
                    <mxGeometry relative="1" as="geometry"/>
                </mxCell>
                <mxCell id="ZnL9BYDdkvqU1IApOcME-18" value="ExecutorPool" style="rounded=0;whiteSpace=wrap;html=1;" parent="1" vertex="1">
                    <mxGeometry x="35" y="280" width="100" height="60" as="geometry"/>
                </mxCell>
                <mxCell id="ZnL9BYDdkvqU1IApOcME-19" value="" style="rounded=0;orthogonalLoop=1;jettySize=auto;html=1;entryX=0.5;entryY=0;entryDx=0;entryDy=0;" parent="1" target="ZnL9BYDdkvqU1IApOcME-17" edge="1">
                    <mxGeometry relative="1" as="geometry">
                        <mxPoint x="220" y="240" as="sourcePoint"/>
                        <mxPoint x="572" y="291" as="targetPoint"/>
                    </mxGeometry>
                </mxCell>
                <mxCell id="ZnL9BYDdkvqU1IApOcME-20" value="" style="edgeStyle=orthogonalEdgeStyle;rounded=0;orthogonalLoop=1;jettySize=auto;html=1;exitX=0.5;exitY=1;exitDx=0;exitDy=0;" parent="1" source="ZnL9BYDdkvqU1IApOcME-2" target="ZnL9BYDdkvqU1IApOcME-18" edge="1">
                    <mxGeometry relative="1" as="geometry">
                        <mxPoint x="230" y="250" as="sourcePoint"/>
                        <mxPoint x="572" y="291" as="targetPoint"/>
                    </mxGeometry>
                </mxCell>
                <mxCell id="ZnL9BYDdkvqU1IApOcME-25" value="" style="edgeStyle=orthogonalEdgeStyle;rounded=0;orthogonalLoop=1;jettySize=auto;html=1;" parent="1" source="ZnL9BYDdkvqU1IApOcME-21" target="ZnL9BYDdkvqU1IApOcME-24" edge="1">
                    <mxGeometry relative="1" as="geometry"/>
                </mxCell>
                <mxCell id="ZnL9BYDdkvqU1IApOcME-21" value="RecyclableExecutorPoolImp" style="rounded=0;whiteSpace=wrap;html=1;" parent="1" vertex="1">
                    <mxGeometry x="5" y="400" width="160" height="40" as="geometry"/>
                </mxCell>
                <mxCell id="ZnL9BYDdkvqU1IApOcME-24" value="NativeTaskExecutor" style="rounded=0;whiteSpace=wrap;html=1;" parent="1" vertex="1">
                    <mxGeometry x="-120" y="480" width="160" height="40" as="geometry"/>
                </mxCell>
                <mxCell id="ZnL9BYDdkvqU1IApOcME-26" value="MediaBaseTaskExecutor" style="rounded=0;whiteSpace=wrap;html=1;" parent="1" vertex="1">
                    <mxGeometry x="90" y="480" width="170" height="40" as="geometry"/>
                </mxCell>
                <mxCell id="ZnL9BYDdkvqU1IApOcME-27" value="" style="edgeStyle=orthogonalEdgeStyle;rounded=0;orthogonalLoop=1;jettySize=auto;html=1;exitX=0.5;exitY=1;exitDx=0;exitDy=0;entryX=0.5;entryY=0;entryDx=0;entryDy=0;" parent="1" source="ZnL9BYDdkvqU1IApOcME-21" target="ZnL9BYDdkvqU1IApOcME-26" edge="1">
                    <mxGeometry relative="1" as="geometry">
                        <mxPoint x="95" y="450" as="sourcePoint"/>
                        <mxPoint x="-30" y="490" as="targetPoint"/>
                    </mxGeometry>
                </mxCell>
                <mxCell id="ZnL9BYDdkvqU1IApOcME-28" value="create" style="edgeLabel;html=1;align=center;verticalAlign=middle;resizable=0;points=[];" parent="ZnL9BYDdkvqU1IApOcME-27" vertex="1" connectable="0">
                    <mxGeometry x="-0.856" relative="1" as="geometry">
                        <mxPoint as="offset"/>
                    </mxGeometry>
                </mxCell>
                <mxCell id="nJ76gcjRxf5y7iiIwIC3-1" value="&lt;div style=&quot;color: rgb(36, 41, 46);&quot;&gt;&lt;pre style=&quot;font-size: 9pt;&quot;&gt;&lt;font face=&quot;Helvetica&quot;&gt;cpp&lt;/font&gt;&lt;/pre&gt;&lt;pre style=&quot;font-size: 9pt;&quot;&gt;&lt;font face=&quot;Helvetica&quot;&gt;ray::rmip::EngineExecutor&lt;/font&gt;&lt;/pre&gt;&lt;/div&gt;" style="rounded=0;whiteSpace=wrap;html=1;fillColor=#d5e8d4;strokeColor=#82b366;labelBackgroundColor=none;" parent="1" vertex="1">
                    <mxGeometry x="305" y="420" width="150" height="60" as="geometry"/>
                </mxCell>
                <mxCell id="nJ76gcjRxf5y7iiIwIC3-4" value="&lt;div style=&quot;background-color:#ffffff;color:#24292e&quot;&gt;&lt;pre style=&quot;font-size: 9pt;&quot;&gt;&lt;font face=&quot;Helvetica&quot;&gt;TRProxy&lt;/font&gt;&lt;/pre&gt;&lt;/div&gt;" style="rounded=0;whiteSpace=wrap;html=1;" parent="1" vertex="1">
                    <mxGeometry x="490" y="430" width="150" height="40" as="geometry"/>
                </mxCell>
                <mxCell id="nJ76gcjRxf5y7iiIwIC3-5" value="&lt;div style=&quot;background-color:#ffffff;color:#24292e&quot;&gt;&lt;pre style=&quot;font-size: 9pt;&quot;&gt;&lt;font face=&quot;Helvetica&quot;&gt;SOFAMQProxy&lt;/font&gt;&lt;/pre&gt;&lt;/div&gt;" style="rounded=0;whiteSpace=wrap;html=1;" parent="1" vertex="1">
                    <mxGeometry x="490" y="480" width="150" height="40" as="geometry"/>
                </mxCell>
                <mxCell id="nJ76gcjRxf5y7iiIwIC3-6" value="" style="edgeStyle=orthogonalEdgeStyle;rounded=0;orthogonalLoop=1;jettySize=auto;html=1;exitX=0.5;exitY=1;exitDx=0;exitDy=0;entryX=0.5;entryY=0;entryDx=0;entryDy=0;" parent="1" source="ZnL9BYDdkvqU1IApOcME-11" target="nJ76gcjRxf5y7iiIwIC3-13" edge="1">
                    <mxGeometry relative="1" as="geometry">
                        <mxPoint x="390" y="350" as="sourcePoint"/>
                        <mxPoint x="600" y="390" as="targetPoint"/>
                    </mxGeometry>
                </mxCell>
                <mxCell id="nJ76gcjRxf5y7iiIwIC3-9" value="create" style="edgeLabel;html=1;align=center;verticalAlign=middle;resizable=0;points=[];" parent="nJ76gcjRxf5y7iiIwIC3-6" vertex="1" connectable="0">
                    <mxGeometry x="-0.6615" y="-1" relative="1" as="geometry">
                        <mxPoint y="-2" as="offset"/>
                    </mxGeometry>
                </mxCell>
                <mxCell id="nJ76gcjRxf5y7iiIwIC3-10" value="&lt;pre style=&quot;border-color: var(--border-color); color: rgb(36, 41, 46); font-size: 9pt;&quot;&gt;&lt;font style=&quot;border-color: var(--border-color);&quot; face=&quot;Helvetica&quot;&gt;ray::rmip::EngineExecutor&lt;/font&gt;&lt;/pre&gt;" style="rounded=0;whiteSpace=wrap;html=1;fillColor=#d5e8d4;strokeColor=#82b366;" parent="1" vertex="1">
                    <mxGeometry x="-120" y="520" width="160" height="40" as="geometry"/>
                </mxCell>
                <mxCell id="nJ76gcjRxf5y7iiIwIC3-12" value="&lt;pre style=&quot;border-color: var(--border-color); color: rgb(36, 41, 46); font-size: 9pt;&quot;&gt;&lt;font style=&quot;border-color: var(--border-color);&quot; face=&quot;Helvetica&quot;&gt;MediaBaseProcessingWorker&lt;/font&gt;&lt;/pre&gt;" style="rounded=0;whiteSpace=wrap;html=1;fillColor=#d5e8d4;strokeColor=#82b366;" parent="1" vertex="1">
                    <mxGeometry x="90" y="520" width="170" height="40" as="geometry"/>
                </mxCell>
                <mxCell id="vtab6cQUvoI-Ft75zsSA-1" value="&lt;pre style=&quot;border-color: var(--border-color); color: rgb(36, 41, 46); font-size: 9pt;&quot;&gt;&lt;div style=&quot;&quot;&gt;&lt;pre style=&quot;font-size: 9pt;&quot;&gt;&lt;font face=&quot;Helvetica&quot;&gt;ray::rmip::ExecuteTaskWorker&lt;/font&gt;&lt;/pre&gt;&lt;/div&gt;&lt;/pre&gt;" style="rounded=0;whiteSpace=wrap;html=1;fillColor=#e1f5e0;strokeColor=#8bb474;labelBackgroundColor=none;" parent="1" vertex="1">
                    <mxGeometry x="90" y="560" width="170" height="40" as="geometry"/>
                </mxCell>
            </root>
        </mxGraphModel>
    </diagram>
    <diagram id="Qjr5g9ErNz6De1QXAEth" name="scheduler">
        <mxGraphModel dx="2093" dy="873" grid="1" gridSize="10" guides="1" tooltips="1" connect="1" arrows="1" fold="1" page="1" pageScale="1" pageWidth="827" pageHeight="1169" math="0" shadow="0">
            <root>
                <mxCell id="0"/>
                <mxCell id="1" parent="0"/>
                <mxCell id="0f4FThh7Tm_beG0wRwqU-77" value="" style="rounded=0;whiteSpace=wrap;html=1;dashed=1;fillColor=none;" parent="1" vertex="1">
                    <mxGeometry x="130" y="430" width="770" height="330" as="geometry"/>
                </mxCell>
                <mxCell id="0f4FThh7Tm_beG0wRwqU-3" value="" style="edgeStyle=orthogonalEdgeStyle;rounded=0;orthogonalLoop=1;jettySize=auto;html=1;startArrow=classic;startFill=1;endArrow=none;endFill=0;exitX=0.5;exitY=0;exitDx=0;exitDy=0;" parent="1" source="0f4FThh7Tm_beG0wRwqU-1" target="0f4FThh7Tm_beG0wRwqU-2" edge="1">
                    <mxGeometry relative="1" as="geometry"/>
                </mxCell>
                <mxCell id="0f4FThh7Tm_beG0wRwqU-1" value="EngineTaskPoolManager::&lt;br&gt;appendWorkerLifecycleOperation" style="rounded=0;whiteSpace=wrap;html=1;" parent="1" vertex="1">
                    <mxGeometry x="500" y="440" width="280" height="40" as="geometry"/>
                </mxCell>
                <mxCell id="0f4FThh7Tm_beG0wRwqU-10" value="" style="edgeStyle=orthogonalEdgeStyle;rounded=0;orthogonalLoop=1;jettySize=auto;html=1;startArrow=classic;startFill=1;endArrow=none;endFill=0;" parent="1" source="0f4FThh7Tm_beG0wRwqU-2" target="0f4FThh7Tm_beG0wRwqU-9" edge="1">
                    <mxGeometry relative="1" as="geometry"/>
                </mxCell>
                <mxCell id="0f4FThh7Tm_beG0wRwqU-2" value="EngineCoordinator::&lt;br&gt;createSingleExecutor" style="rounded=0;whiteSpace=wrap;html=1;" parent="1" vertex="1">
                    <mxGeometry x="40" y="200" width="200" height="40" as="geometry"/>
                </mxCell>
                <mxCell id="0f4FThh7Tm_beG0wRwqU-5" value="" style="edgeStyle=orthogonalEdgeStyle;rounded=0;orthogonalLoop=1;jettySize=auto;html=1;" parent="1" source="0f4FThh7Tm_beG0wRwqU-4" target="0f4FThh7Tm_beG0wRwqU-1" edge="1">
                    <mxGeometry relative="1" as="geometry"/>
                </mxCell>
                <mxCell id="0f4FThh7Tm_beG0wRwqU-4" value="EngineCoordinator::&lt;br&gt;restartSingleExecutor" style="rounded=0;whiteSpace=wrap;html=1;" parent="1" vertex="1">
                    <mxGeometry x="320" y="200" width="200" height="40" as="geometry"/>
                </mxCell>
                <mxCell id="0f4FThh7Tm_beG0wRwqU-8" value="" style="edgeStyle=orthogonalEdgeStyle;rounded=0;orthogonalLoop=1;jettySize=auto;html=1;entryX=0.5;entryY=0;entryDx=0;entryDy=0;exitX=0.5;exitY=1;exitDx=0;exitDy=0;" parent="1" source="0f4FThh7Tm_beG0wRwqU-6" target="0f4FThh7Tm_beG0wRwqU-1" edge="1">
                    <mxGeometry relative="1" as="geometry">
                        <mxPoint x="820" y="320" as="targetPoint"/>
                        <Array as="points">
                            <mxPoint x="720" y="280"/>
                            <mxPoint x="640" y="280"/>
                        </Array>
                    </mxGeometry>
                </mxCell>
                <mxCell id="0f4FThh7Tm_beG0wRwqU-6" value="EngineCoordinator::&lt;br&gt;generateExecutorWithConnectorProxy" style="rounded=0;whiteSpace=wrap;html=1;" parent="1" vertex="1">
                    <mxGeometry x="600" y="200" width="240" height="40" as="geometry"/>
                </mxCell>
                <mxCell id="0f4FThh7Tm_beG0wRwqU-9" value="EngineCoordinator::&lt;br&gt;startLiveTranscoding" style="rounded=0;whiteSpace=wrap;html=1;fillColor=#d5e8d4;strokeColor=#82b366;" parent="1" vertex="1">
                    <mxGeometry x="-80" width="160" height="40" as="geometry"/>
                </mxCell>
                <mxCell id="0f4FThh7Tm_beG0wRwqU-12" value="" style="edgeStyle=orthogonalEdgeStyle;rounded=0;orthogonalLoop=1;jettySize=auto;html=1;entryX=0.5;entryY=0;entryDx=0;entryDy=0;" parent="1" source="0f4FThh7Tm_beG0wRwqU-11" target="0f4FThh7Tm_beG0wRwqU-2" edge="1">
                    <mxGeometry relative="1" as="geometry"/>
                </mxCell>
                <mxCell id="0f4FThh7Tm_beG0wRwqU-11" value="EngineCoordinator::&lt;br&gt;restartLiveTranscoding" style="rounded=0;whiteSpace=wrap;html=1;fillColor=#d5e8d4;strokeColor=#82b366;" parent="1" vertex="1">
                    <mxGeometry x="100" width="160" height="40" as="geometry"/>
                </mxCell>
                <mxCell id="0f4FThh7Tm_beG0wRwqU-14" value="" style="edgeStyle=orthogonalEdgeStyle;rounded=0;orthogonalLoop=1;jettySize=auto;html=1;exitX=0.5;exitY=1;exitDx=0;exitDy=0;" parent="1" source="0f4FThh7Tm_beG0wRwqU-11" target="0f4FThh7Tm_beG0wRwqU-4" edge="1">
                    <mxGeometry relative="1" as="geometry">
                        <mxPoint x="310" y="130" as="sourcePoint"/>
                        <mxPoint x="150" y="210" as="targetPoint"/>
                    </mxGeometry>
                </mxCell>
                <mxCell id="0f4FThh7Tm_beG0wRwqU-16" value="" style="edgeStyle=orthogonalEdgeStyle;rounded=0;orthogonalLoop=1;jettySize=auto;html=1;" parent="1" source="0f4FThh7Tm_beG0wRwqU-15" target="0f4FThh7Tm_beG0wRwqU-6" edge="1">
                    <mxGeometry relative="1" as="geometry"/>
                </mxCell>
                <mxCell id="0f4FThh7Tm_beG0wRwqU-15" value="EngineCoordinator::&lt;br&gt;createSingleExecutorWithConnectorProxy" style="rounded=0;whiteSpace=wrap;html=1;" parent="1" vertex="1">
                    <mxGeometry x="440" y="120" width="240" height="40" as="geometry"/>
                </mxCell>
                <mxCell id="0f4FThh7Tm_beG0wRwqU-19" value="" style="edgeStyle=orthogonalEdgeStyle;rounded=0;orthogonalLoop=1;jettySize=auto;html=1;" parent="1" source="0f4FThh7Tm_beG0wRwqU-18" target="0f4FThh7Tm_beG0wRwqU-6" edge="1">
                    <mxGeometry relative="1" as="geometry"/>
                </mxCell>
                <mxCell id="0f4FThh7Tm_beG0wRwqU-18" value="EngineCoordinator::&lt;br&gt;restartSingleExecutorWithConnectorProxy" style="rounded=0;whiteSpace=wrap;html=1;" parent="1" vertex="1">
                    <mxGeometry x="720" y="120" width="240" height="40" as="geometry"/>
                </mxCell>
                <mxCell id="0f4FThh7Tm_beG0wRwqU-21" value="" style="rounded=0;orthogonalLoop=1;jettySize=auto;html=1;edgeStyle=orthogonalEdgeStyle;" parent="1" source="0f4FThh7Tm_beG0wRwqU-20" target="0f4FThh7Tm_beG0wRwqU-15" edge="1">
                    <mxGeometry relative="1" as="geometry">
                        <Array as="points">
                            <mxPoint x="350" y="80"/>
                            <mxPoint x="560" y="80"/>
                        </Array>
                    </mxGeometry>
                </mxCell>
                <mxCell id="0f4FThh7Tm_beG0wRwqU-20" value="EngineCoordinator::&lt;br&gt;startLiveSnapshot" style="rounded=0;whiteSpace=wrap;html=1;fillColor=#d5e8d4;strokeColor=#82b366;" parent="1" vertex="1">
                    <mxGeometry x="290" width="120" height="40" as="geometry"/>
                </mxCell>
                <mxCell id="0f4FThh7Tm_beG0wRwqU-23" value="" style="edgeStyle=orthogonalEdgeStyle;rounded=0;orthogonalLoop=1;jettySize=auto;html=1;" parent="1" source="0f4FThh7Tm_beG0wRwqU-22" target="0f4FThh7Tm_beG0wRwqU-15" edge="1">
                    <mxGeometry relative="1" as="geometry"/>
                </mxCell>
                <mxCell id="0f4FThh7Tm_beG0wRwqU-22" value="EngineCoordinator::&lt;br&gt;startLiveEnrichment" style="rounded=0;whiteSpace=wrap;html=1;fillColor=#d5e8d4;strokeColor=#82b366;" parent="1" vertex="1">
                    <mxGeometry x="420" width="140" height="40" as="geometry"/>
                </mxCell>
                <mxCell id="0f4FThh7Tm_beG0wRwqU-25" value="" style="rounded=0;orthogonalLoop=1;jettySize=auto;html=1;entryX=0.5;entryY=0;entryDx=0;entryDy=0;edgeStyle=orthogonalEdgeStyle;" parent="1" source="0f4FThh7Tm_beG0wRwqU-24" target="0f4FThh7Tm_beG0wRwqU-15" edge="1">
                    <mxGeometry relative="1" as="geometry"/>
                </mxCell>
                <mxCell id="0f4FThh7Tm_beG0wRwqU-24" value="EngineCoordinator::&lt;br&gt;startLiveRecoding" style="rounded=0;whiteSpace=wrap;html=1;fillColor=#d5e8d4;strokeColor=#82b366;" parent="1" vertex="1">
                    <mxGeometry x="570" width="120" height="40" as="geometry"/>
                </mxCell>
                <mxCell id="0f4FThh7Tm_beG0wRwqU-28" value="" style="rounded=0;orthogonalLoop=1;jettySize=auto;html=1;entryX=0.5;entryY=0;entryDx=0;entryDy=0;exitX=0.5;exitY=1;exitDx=0;exitDy=0;edgeStyle=orthogonalEdgeStyle;fillColor=#f8cecc;strokeColor=#b85450;" parent="1" source="0f4FThh7Tm_beG0wRwqU-26" target="0f4FThh7Tm_beG0wRwqU-15" edge="1">
                    <mxGeometry relative="1" as="geometry">
                        <mxPoint x="1020" y="120" as="targetPoint"/>
                        <Array as="points">
                            <mxPoint x="770" y="60"/>
                            <mxPoint x="560" y="60"/>
                        </Array>
                    </mxGeometry>
                </mxCell>
                <mxCell id="0f4FThh7Tm_beG0wRwqU-33" value="" style="edgeStyle=orthogonalEdgeStyle;rounded=0;orthogonalLoop=1;jettySize=auto;html=1;fillColor=#f8cecc;strokeColor=#b85450;" parent="1" source="0f4FThh7Tm_beG0wRwqU-26" target="0f4FThh7Tm_beG0wRwqU-18" edge="1">
                    <mxGeometry relative="1" as="geometry">
                        <Array as="points">
                            <mxPoint x="770" y="60"/>
                            <mxPoint x="840" y="60"/>
                        </Array>
                    </mxGeometry>
                </mxCell>
                <mxCell id="0f4FThh7Tm_beG0wRwqU-26" value="EngineCoordinator::&lt;br&gt;restartLiveEnrichment" style="rounded=0;whiteSpace=wrap;html=1;fillColor=#d5e8d4;strokeColor=#82b366;" parent="1" vertex="1">
                    <mxGeometry x="700" width="140" height="40" as="geometry"/>
                </mxCell>
                <mxCell id="0f4FThh7Tm_beG0wRwqU-32" value="" style="rounded=0;orthogonalLoop=1;jettySize=auto;html=1;entryX=0.5;entryY=0;entryDx=0;entryDy=0;exitX=0.5;exitY=1;exitDx=0;exitDy=0;edgeStyle=orthogonalEdgeStyle;fillColor=#d5e8d4;strokeColor=#82b366;" parent="1" source="0f4FThh7Tm_beG0wRwqU-30" target="0f4FThh7Tm_beG0wRwqU-15" edge="1">
                    <mxGeometry relative="1" as="geometry">
                        <mxPoint x="560" y="80" as="targetPoint"/>
                        <Array as="points">
                            <mxPoint x="915" y="100"/>
                            <mxPoint x="560" y="100"/>
                        </Array>
                    </mxGeometry>
                </mxCell>
                <mxCell id="0f4FThh7Tm_beG0wRwqU-30" value="EngineCoordinator::&lt;br&gt;restartLiveRecoding" style="rounded=0;whiteSpace=wrap;html=1;fillColor=#d5e8d4;strokeColor=#82b366;" parent="1" vertex="1">
                    <mxGeometry x="850" width="130" height="40" as="geometry"/>
                </mxCell>
                <mxCell id="0f4FThh7Tm_beG0wRwqU-34" value="" style="rounded=0;orthogonalLoop=1;jettySize=auto;html=1;fillColor=#d5e8d4;strokeColor=#82b366;exitX=0.5;exitY=1;exitDx=0;exitDy=0;entryX=0.75;entryY=0;entryDx=0;entryDy=0;edgeStyle=orthogonalEdgeStyle;" parent="1" source="0f4FThh7Tm_beG0wRwqU-30" target="0f4FThh7Tm_beG0wRwqU-18" edge="1">
                    <mxGeometry relative="1" as="geometry">
                        <mxPoint x="780" y="50" as="sourcePoint"/>
                        <mxPoint x="850" y="90" as="targetPoint"/>
                        <Array as="points">
                            <mxPoint x="915" y="100"/>
                            <mxPoint x="900" y="100"/>
                        </Array>
                    </mxGeometry>
                </mxCell>
                <mxCell id="0f4FThh7Tm_beG0wRwqU-37" value="" style="edgeStyle=orthogonalEdgeStyle;rounded=0;orthogonalLoop=1;jettySize=auto;html=1;entryX=1;entryY=0.5;entryDx=0;entryDy=0;exitX=0.5;exitY=1;exitDx=0;exitDy=0;fillColor=#dae8fc;strokeColor=#6c8ebf;" parent="1" source="0f4FThh7Tm_beG0wRwqU-35" target="0f4FThh7Tm_beG0wRwqU-18" edge="1">
                    <mxGeometry relative="1" as="geometry">
                        <mxPoint x="1055" y="120" as="targetPoint"/>
                    </mxGeometry>
                </mxCell>
                <mxCell id="0f4FThh7Tm_beG0wRwqU-35" value="EngineCoordinator::&lt;br&gt;restartLiveSnapshot" style="rounded=0;whiteSpace=wrap;html=1;fillColor=#d5e8d4;strokeColor=#82b366;" parent="1" vertex="1">
                    <mxGeometry x="990" width="130" height="40" as="geometry"/>
                </mxCell>
                <mxCell id="0f4FThh7Tm_beG0wRwqU-38" value="" style="edgeStyle=orthogonalEdgeStyle;rounded=0;orthogonalLoop=1;jettySize=auto;html=1;exitX=0.5;exitY=1;exitDx=0;exitDy=0;entryX=0.5;entryY=0;entryDx=0;entryDy=0;fillColor=#dae8fc;strokeColor=#6c8ebf;" parent="1" source="0f4FThh7Tm_beG0wRwqU-35" target="0f4FThh7Tm_beG0wRwqU-15" edge="1">
                    <mxGeometry relative="1" as="geometry">
                        <mxPoint x="1065" y="50" as="sourcePoint"/>
                        <mxPoint x="560" y="80" as="targetPoint"/>
                    </mxGeometry>
                </mxCell>
                <mxCell id="0f4FThh7Tm_beG0wRwqU-41" value="" style="edgeStyle=orthogonalEdgeStyle;rounded=0;orthogonalLoop=1;jettySize=auto;html=1;entryX=0.5;entryY=0;entryDx=0;entryDy=0;" parent="1" source="0f4FThh7Tm_beG0wRwqU-39" target="0f4FThh7Tm_beG0wRwqU-1" edge="1">
                    <mxGeometry relative="1" as="geometry">
                        <mxPoint x="640" y="430" as="targetPoint"/>
                    </mxGeometry>
                </mxCell>
                <mxCell id="0f4FThh7Tm_beG0wRwqU-39" value="RecyclableEngineCoordinator::&lt;br&gt;createMediaBaseExecutor" style="rounded=0;whiteSpace=wrap;html=1;" parent="1" vertex="1">
                    <mxGeometry x="720.5" y="350" width="200" height="40" as="geometry"/>
                </mxCell>
                <mxCell id="0f4FThh7Tm_beG0wRwqU-44" value="" style="rounded=0;orthogonalLoop=1;jettySize=auto;html=1;entryX=0.5;entryY=0;entryDx=0;entryDy=0;exitX=0.5;exitY=1;exitDx=0;exitDy=0;edgeStyle=orthogonalEdgeStyle;" parent="1" source="0f4FThh7Tm_beG0wRwqU-42" target="0f4FThh7Tm_beG0wRwqU-1" edge="1">
                    <mxGeometry relative="1" as="geometry">
                        <mxPoint x="1180" y="480" as="targetPoint"/>
                    </mxGeometry>
                </mxCell>
                <mxCell id="0f4FThh7Tm_beG0wRwqU-42" value="RecyclableEngineCoordinator::&lt;br&gt;createSingleExecutor" style="rounded=0;whiteSpace=wrap;html=1;fillColor=#f5f5f5;fontColor=#333333;strokeColor=#666666;" parent="1" vertex="1">
                    <mxGeometry x="941.5" y="350" width="180" height="40" as="geometry"/>
                </mxCell>
                <mxCell id="0f4FThh7Tm_beG0wRwqU-46" value="" style="edgeStyle=orthogonalEdgeStyle;rounded=0;orthogonalLoop=1;jettySize=auto;html=1;" parent="1" source="0f4FThh7Tm_beG0wRwqU-45" target="0f4FThh7Tm_beG0wRwqU-39" edge="1">
                    <mxGeometry relative="1" as="geometry"/>
                </mxCell>
                <mxCell id="0f4FThh7Tm_beG0wRwqU-45" value="RecyclableEngineCoordinator::&lt;br&gt;startMediaBaseProcessing" style="rounded=0;whiteSpace=wrap;html=1;fillColor=#dae8fc;strokeColor=#6c8ebf;" parent="1" vertex="1">
                    <mxGeometry x="731.5" y="280" width="180" height="40" as="geometry"/>
                </mxCell>
                <mxCell id="0f4FThh7Tm_beG0wRwqU-49" value="" style="rounded=0;orthogonalLoop=1;jettySize=auto;html=1;entryX=0.5;entryY=1;entryDx=0;entryDy=0;exitX=0.5;exitY=0;exitDx=0;exitDy=0;edgeStyle=orthogonalEdgeStyle;" parent="1" source="0f4FThh7Tm_beG0wRwqU-47" target="0f4FThh7Tm_beG0wRwqU-1" edge="1">
                    <mxGeometry relative="1" as="geometry">
                        <mxPoint x="747" y="540" as="targetPoint"/>
                    </mxGeometry>
                </mxCell>
                <mxCell id="0f4FThh7Tm_beG0wRwqU-54" value="" style="edgeStyle=orthogonalEdgeStyle;rounded=0;orthogonalLoop=1;jettySize=auto;html=1;startArrow=classic;startFill=1;endArrow=none;endFill=0;" parent="1" source="0f4FThh7Tm_beG0wRwqU-47" target="0f4FThh7Tm_beG0wRwqU-53" edge="1">
                    <mxGeometry relative="1" as="geometry"/>
                </mxCell>
                <mxCell id="0f4FThh7Tm_beG0wRwqU-47" value="EngineTaskPoolManager::&lt;br&gt;taskRecycle" style="rounded=0;whiteSpace=wrap;html=1;" parent="1" vertex="1">
                    <mxGeometry x="240" y="560" width="180" height="40" as="geometry"/>
                </mxCell>
                <mxCell id="0f4FThh7Tm_beG0wRwqU-52" value="" style="rounded=0;orthogonalLoop=1;jettySize=auto;html=1;entryX=0.5;entryY=1;entryDx=0;entryDy=0;edgeStyle=orthogonalEdgeStyle;" parent="1" source="0f4FThh7Tm_beG0wRwqU-50" target="0f4FThh7Tm_beG0wRwqU-1" edge="1">
                    <mxGeometry relative="1" as="geometry">
                        <mxPoint x="640" y="490" as="targetPoint"/>
                        <Array as="points">
                            <mxPoint x="970" y="520"/>
                            <mxPoint x="640" y="520"/>
                        </Array>
                    </mxGeometry>
                </mxCell>
                <mxCell id="0f4FThh7Tm_beG0wRwqU-50" value="EngineTaskPoolManager::&lt;br&gt;shutdownTask" style="rounded=0;whiteSpace=wrap;html=1;" parent="1" vertex="1">
                    <mxGeometry x="440" y="560" width="180" height="40" as="geometry"/>
                </mxCell>
                <mxCell id="0f4FThh7Tm_beG0wRwqU-53" value="RecyclableEngineCoordinator::&lt;br&gt;stopProcessingExecutor" style="rounded=0;whiteSpace=wrap;html=1;fillColor=#dae8fc;strokeColor=#6c8ebf;" parent="1" vertex="1">
                    <mxGeometry x="-80" y="560" width="180" height="40" as="geometry"/>
                </mxCell>
                <mxCell id="0f4FThh7Tm_beG0wRwqU-56" value="" style="edgeStyle=orthogonalEdgeStyle;rounded=0;orthogonalLoop=1;jettySize=auto;html=1;" parent="1" source="0f4FThh7Tm_beG0wRwqU-55" target="0f4FThh7Tm_beG0wRwqU-47" edge="1">
                    <mxGeometry relative="1" as="geometry"/>
                </mxCell>
                <mxCell id="0f4FThh7Tm_beG0wRwqU-55" value="EngineTaskPoolManager::&lt;br&gt;updateTaskStatus" style="rounded=0;whiteSpace=wrap;html=1;" parent="1" vertex="1">
                    <mxGeometry x="150" y="640" width="150" height="40" as="geometry"/>
                </mxCell>
                <mxCell id="0f4FThh7Tm_beG0wRwqU-58" value="" style="edgeStyle=orthogonalEdgeStyle;rounded=0;orthogonalLoop=1;jettySize=auto;html=1;entryX=0.5;entryY=1;entryDx=0;entryDy=0;" parent="1" source="0f4FThh7Tm_beG0wRwqU-57" target="0f4FThh7Tm_beG0wRwqU-47" edge="1">
                    <mxGeometry relative="1" as="geometry">
                        <mxPoint x="330" y="610" as="targetPoint"/>
                        <Array as="points">
                            <mxPoint x="450" y="620"/>
                            <mxPoint x="330" y="620"/>
                        </Array>
                    </mxGeometry>
                </mxCell>
                <mxCell id="0f4FThh7Tm_beG0wRwqU-76" value="" style="edgeStyle=orthogonalEdgeStyle;rounded=0;orthogonalLoop=1;jettySize=auto;html=1;" parent="1" source="0f4FThh7Tm_beG0wRwqU-57" target="0f4FThh7Tm_beG0wRwqU-67" edge="1">
                    <mxGeometry relative="1" as="geometry"/>
                </mxCell>
                <mxCell id="0f4FThh7Tm_beG0wRwqU-57" value="EngineTaskPoolManager::&lt;br&gt;batchSeekStatus" style="rounded=0;whiteSpace=wrap;html=1;" parent="1" vertex="1">
                    <mxGeometry x="360" y="640" width="150" height="40" as="geometry"/>
                </mxCell>
                <mxCell id="0f4FThh7Tm_beG0wRwqU-60" value="" style="rounded=0;orthogonalLoop=1;jettySize=auto;html=1;entryX=0.5;entryY=1;entryDx=0;entryDy=0;exitX=0.5;exitY=0;exitDx=0;exitDy=0;" parent="1" source="0f4FThh7Tm_beG0wRwqU-59" target="0f4FThh7Tm_beG0wRwqU-47" edge="1">
                    <mxGeometry relative="1" as="geometry"/>
                </mxCell>
                <mxCell id="0f4FThh7Tm_beG0wRwqU-59" value="EngineTaskPoolManager::&lt;br&gt;executeTaskRunner" style="rounded=0;whiteSpace=wrap;html=1;" parent="1" vertex="1">
                    <mxGeometry x="255" y="710" width="150" height="40" as="geometry"/>
                </mxCell>
                <mxCell id="0f4FThh7Tm_beG0wRwqU-64" value="" style="edgeStyle=orthogonalEdgeStyle;rounded=0;orthogonalLoop=1;jettySize=auto;html=1;" parent="1" source="0f4FThh7Tm_beG0wRwqU-63" target="0f4FThh7Tm_beG0wRwqU-50" edge="1">
                    <mxGeometry relative="1" as="geometry"/>
                </mxCell>
                <mxCell id="0f4FThh7Tm_beG0wRwqU-63" value="EngineCoordinator::&lt;br&gt;stopProcessingExecutor" style="rounded=0;whiteSpace=wrap;html=1;" parent="1" vertex="1">
                    <mxGeometry x="940" y="560" width="180" height="40" as="geometry"/>
                </mxCell>
                <mxCell id="0f4FThh7Tm_beG0wRwqU-66" value="" style="edgeStyle=orthogonalEdgeStyle;rounded=0;orthogonalLoop=1;jettySize=auto;html=1;" parent="1" source="0f4FThh7Tm_beG0wRwqU-65" target="0f4FThh7Tm_beG0wRwqU-63" edge="1">
                    <mxGeometry relative="1" as="geometry"/>
                </mxCell>
                <mxCell id="0f4FThh7Tm_beG0wRwqU-65" value="EngineCoordinator::&lt;br&gt;stopLiveProcessing" style="rounded=0;whiteSpace=wrap;html=1;fillColor=#d5e8d4;strokeColor=#82b366;" parent="1" vertex="1">
                    <mxGeometry x="940" y="640" width="180" height="40" as="geometry"/>
                </mxCell>
                <mxCell id="0f4FThh7Tm_beG0wRwqU-69" value="" style="edgeStyle=orthogonalEdgeStyle;rounded=0;orthogonalLoop=1;jettySize=auto;html=1;" parent="1" source="0f4FThh7Tm_beG0wRwqU-67" target="0f4FThh7Tm_beG0wRwqU-50" edge="1">
                    <mxGeometry relative="1" as="geometry">
                        <mxPoint x="689" y="560" as="targetPoint"/>
                    </mxGeometry>
                </mxCell>
                <mxCell id="0f4FThh7Tm_beG0wRwqU-67" value="EngineTaskPoolManager::&lt;br&gt;zombieDetectAndRecycle" style="rounded=0;whiteSpace=wrap;html=1;" parent="1" vertex="1">
                    <mxGeometry x="560" y="640" width="151" height="40" as="geometry"/>
                </mxCell>
                <mxCell id="0f4FThh7Tm_beG0wRwqU-72" value="" style="edgeStyle=orthogonalEdgeStyle;rounded=0;orthogonalLoop=1;jettySize=auto;html=1;" parent="1" source="0f4FThh7Tm_beG0wRwqU-70" edge="1">
                    <mxGeometry relative="1" as="geometry">
                        <mxPoint x="530" y="600" as="targetPoint"/>
                        <Array as="points">
                            <mxPoint x="840" y="620"/>
                            <mxPoint x="530" y="620"/>
                        </Array>
                    </mxGeometry>
                </mxCell>
                <mxCell id="0f4FThh7Tm_beG0wRwqU-70" value="EngineTaskPoolManager::&lt;br&gt;rollbackIncompleteOperation" style="rounded=0;whiteSpace=wrap;html=1;" parent="1" vertex="1">
                    <mxGeometry x="720" y="640" width="160" height="40" as="geometry"/>
                </mxCell>
                <mxCell id="0f4FThh7Tm_beG0wRwqU-74" value="" style="rounded=0;orthogonalLoop=1;jettySize=auto;html=1;entryX=0.5;entryY=1;entryDx=0;entryDy=0;exitX=0.5;exitY=0;exitDx=0;exitDy=0;" parent="1" source="0f4FThh7Tm_beG0wRwqU-73" target="0f4FThh7Tm_beG0wRwqU-67" edge="1">
                    <mxGeometry relative="1" as="geometry"/>
                </mxCell>
                <mxCell id="0f4FThh7Tm_beG0wRwqU-73" value="EngineTaskPoolManager::&lt;br&gt;seekStatusById" style="rounded=0;whiteSpace=wrap;html=1;" parent="1" vertex="1">
                    <mxGeometry x="560" y="710" width="151" height="40" as="geometry"/>
                </mxCell>
                <mxCell id="0f4FThh7Tm_beG0wRwqU-80" value="EngineCoordinator::&lt;br&gt;getLiveStatus" style="rounded=0;whiteSpace=wrap;html=1;fillColor=#fff2cc;strokeColor=#d6b656;" parent="1" vertex="1">
                    <mxGeometry x="990" y="200" width="130" height="40" as="geometry"/>
                </mxCell>
                <mxCell id="YvC-hIiEsVTVC0__SQEo-1" value="&lt;div style=&quot;background-color:#ffffff;color:#24292e&quot;&gt;&lt;pre style=&quot;font-size: 9pt;&quot;&gt;&lt;font face=&quot;Helvetica&quot;&gt;prepareWorkerLifecycleRunnerDeque&lt;/font&gt;&lt;/pre&gt;&lt;/div&gt;" style="text;html=1;align=center;verticalAlign=middle;resizable=0;points=[];autosize=1;strokeColor=none;fillColor=none;" parent="1" vertex="1">
                    <mxGeometry x="637" y="465" width="220" height="50" as="geometry"/>
                </mxCell>
            </root>
        </mxGraphModel>
    </diagram>
    <diagram id="keBGLY_GC-zR2qqUoy2n" name="state manager">
        <mxGraphModel dx="2093" dy="2042" grid="1" gridSize="10" guides="1" tooltips="1" connect="1" arrows="1" fold="1" page="1" pageScale="1" pageWidth="827" pageHeight="1169" math="0" shadow="0">
            <root>
                <mxCell id="0"/>
                <mxCell id="1" parent="0"/>
                <mxCell id="dNWO5NIlt2O0Vma2SlEf-3" value="" style="edgeStyle=orthogonalEdgeStyle;rounded=0;orthogonalLoop=1;jettySize=auto;html=1;" parent="1" source="dNWO5NIlt2O0Vma2SlEf-1" target="dNWO5NIlt2O0Vma2SlEf-2" edge="1">
                    <mxGeometry relative="1" as="geometry"/>
                </mxCell>
                <mxCell id="dNWO5NIlt2O0Vma2SlEf-5" value="" style="edgeStyle=orthogonalEdgeStyle;rounded=0;orthogonalLoop=1;jettySize=auto;html=1;startArrow=classic;startFill=1;endArrow=none;endFill=0;" parent="1" target="dNWO5NIlt2O0Vma2SlEf-4" edge="1">
                    <mxGeometry relative="1" as="geometry">
                        <mxPoint x="300" y="80" as="sourcePoint"/>
                    </mxGeometry>
                </mxCell>
                <mxCell id="dNWO5NIlt2O0Vma2SlEf-7" value="" style="edgeStyle=orthogonalEdgeStyle;rounded=0;orthogonalLoop=1;jettySize=auto;html=1;startArrow=classic;startFill=1;endArrow=none;endFill=0;" parent="1" source="dNWO5NIlt2O0Vma2SlEf-1" target="dNWO5NIlt2O0Vma2SlEf-6" edge="1">
                    <mxGeometry relative="1" as="geometry"/>
                </mxCell>
                <mxCell id="dNWO5NIlt2O0Vma2SlEf-1" value="&lt;div style=&quot;background-color:#ffffff;color:#24292e&quot;&gt;&lt;pre style=&quot;font-family:'Meslo LG L DZ for Powerline',monospace;font-size:9.0pt;&quot;&gt;saveExecutorInfoInMem(taskId, actionName)&lt;/pre&gt;&lt;/div&gt;" style="rounded=0;whiteSpace=wrap;html=1;" parent="1" vertex="1">
                    <mxGeometry x="140" y="160" width="320" height="40" as="geometry"/>
                </mxCell>
                <mxCell id="dNWO5NIlt2O0Vma2SlEf-2" value="&lt;div style=&quot;color: rgb(36, 41, 46);&quot;&gt;&lt;pre style=&quot;font-family:'Meslo LG L DZ for Powerline',monospace;font-size:9.0pt;&quot;&gt;taskStatusMap.put(taskId, WAITING)&lt;/pre&gt;&lt;pre style=&quot;font-family:'Meslo LG L DZ for Powerline',monospace;font-size:9.0pt;&quot;&gt;taskPool.put(taskId, actionName)&lt;/pre&gt;&lt;/div&gt;" style="rounded=0;whiteSpace=wrap;html=1;fillColor=#dae8fc;strokeColor=#6c8ebf;labelBackgroundColor=none;" parent="1" vertex="1">
                    <mxGeometry x="160" y="280" width="280" height="60" as="geometry"/>
                </mxCell>
                <mxCell id="dNWO5NIlt2O0Vma2SlEf-4" value="&lt;div style=&quot;color: rgb(36, 41, 46);&quot;&gt;&lt;pre style=&quot;font-family:'Meslo LG L DZ for Powerline',monospace;font-size:9.0pt;&quot;&gt;&lt;div&gt;&lt;pre style=&quot;font-family:'Meslo LG L DZ for Powerline',monospace;font-size:9.0pt;&quot;&gt;executorBind(taskId, actionName, executor)&lt;/pre&gt;&lt;/div&gt;&lt;/pre&gt;&lt;/div&gt;" style="rounded=0;whiteSpace=wrap;html=1;fillColor=#fff2cc;strokeColor=#d6b656;labelBackgroundColor=none;" parent="1" vertex="1">
                    <mxGeometry x="140" y="40" width="320" height="40" as="geometry"/>
                </mxCell>
                <mxCell id="dNWO5NIlt2O0Vma2SlEf-36" value="" style="edgeStyle=orthogonalEdgeStyle;rounded=0;orthogonalLoop=1;jettySize=auto;html=1;startArrow=classic;startFill=1;endArrow=none;endFill=0;" parent="1" source="dNWO5NIlt2O0Vma2SlEf-6" target="dNWO5NIlt2O0Vma2SlEf-35" edge="1">
                    <mxGeometry relative="1" as="geometry"/>
                </mxCell>
                <mxCell id="dNWO5NIlt2O0Vma2SlEf-6" value="&lt;div style=&quot;background-color:#ffffff;color:#24292e&quot;&gt;&lt;pre style=&quot;font-family:'Meslo LG L DZ for Powerline',monospace;font-size:9.0pt;&quot;&gt;CreateExecutorTaskRunner::init()&lt;/pre&gt;&lt;/div&gt;" style="rounded=0;whiteSpace=wrap;html=1;" parent="1" vertex="1">
                    <mxGeometry x="520" y="160" width="320" height="40" as="geometry"/>
                </mxCell>
                <mxCell id="dNWO5NIlt2O0Vma2SlEf-9" value="" style="edgeStyle=orthogonalEdgeStyle;rounded=0;orthogonalLoop=1;jettySize=auto;html=1;" parent="1" source="dNWO5NIlt2O0Vma2SlEf-8" target="dNWO5NIlt2O0Vma2SlEf-1" edge="1">
                    <mxGeometry relative="1" as="geometry"/>
                </mxCell>
                <mxCell id="dNWO5NIlt2O0Vma2SlEf-8" value="&lt;div style=&quot;background-color:#ffffff;color:#24292e&quot;&gt;&lt;pre style=&quot;font-family:'Meslo LG L DZ for Powerline',monospace;font-size:9.0pt;&quot;&gt;CreateRycyclableExecutorTaskRunner::init()&lt;/pre&gt;&lt;/div&gt;" style="rounded=0;whiteSpace=wrap;html=1;" parent="1" vertex="1">
                    <mxGeometry x="-240" y="160" width="320" height="40" as="geometry"/>
                </mxCell>
                <mxCell id="dNWO5NIlt2O0Vma2SlEf-11" value="" style="edgeStyle=orthogonalEdgeStyle;rounded=0;orthogonalLoop=1;jettySize=auto;html=1;" parent="1" source="dNWO5NIlt2O0Vma2SlEf-10" target="dNWO5NIlt2O0Vma2SlEf-4" edge="1">
                    <mxGeometry relative="1" as="geometry"/>
                </mxCell>
                <mxCell id="dNWO5NIlt2O0Vma2SlEf-13" value="" style="edgeStyle=orthogonalEdgeStyle;rounded=0;orthogonalLoop=1;jettySize=auto;html=1;startArrow=classic;startFill=1;endArrow=none;endFill=0;" parent="1" source="dNWO5NIlt2O0Vma2SlEf-10" target="dNWO5NIlt2O0Vma2SlEf-12" edge="1">
                    <mxGeometry relative="1" as="geometry"/>
                </mxCell>
                <mxCell id="dNWO5NIlt2O0Vma2SlEf-10" value="&lt;div style=&quot;background-color:#ffffff;color:#24292e&quot;&gt;&lt;pre style=&quot;font-family:'Meslo LG L DZ for Powerline',monospace;font-size:9.0pt;&quot;&gt;RecyclableEngineCoordinator::createMediaBaseExecutor(config, actionName)&lt;/pre&gt;&lt;/div&gt;" style="rounded=0;whiteSpace=wrap;html=1;" parent="1" vertex="1">
                    <mxGeometry x="520" y="40" width="560" height="40" as="geometry"/>
                </mxCell>
                <mxCell id="dNWO5NIlt2O0Vma2SlEf-12" value="&lt;div style=&quot;color: rgb(36, 41, 46);&quot;&gt;&lt;pre style=&quot;font-family:'Meslo LG L DZ for Powerline',monospace;font-size:9.0pt;&quot;&gt;RecyclableEngineCoordinator::startMediaBaseProcessing(config)&lt;/pre&gt;&lt;/div&gt;" style="rounded=0;whiteSpace=wrap;html=1;fillColor=#d5e8d4;strokeColor=#82b366;labelBackgroundColor=none;" parent="1" vertex="1">
                    <mxGeometry x="520" y="-60" width="560" height="40" as="geometry"/>
                </mxCell>
                <mxCell id="dNWO5NIlt2O0Vma2SlEf-17" value="" style="edgeStyle=orthogonalEdgeStyle;rounded=0;orthogonalLoop=1;jettySize=auto;html=1;entryX=0.5;entryY=0;entryDx=0;entryDy=0;" parent="1" source="dNWO5NIlt2O0Vma2SlEf-15" target="dNWO5NIlt2O0Vma2SlEf-4" edge="1">
                    <mxGeometry relative="1" as="geometry">
                        <mxPoint x="300" y="-10" as="targetPoint"/>
                    </mxGeometry>
                </mxCell>
                <mxCell id="dNWO5NIlt2O0Vma2SlEf-15" value="RecyclableEngineCoordinator::createSingleExecutor(config, actionName)" style="rounded=0;whiteSpace=wrap;html=1;fillColor=#f5f5f5;strokeColor=#666666;fontColor=#333333;" parent="1" vertex="1">
                    <mxGeometry x="20" y="-130" width="560" height="40" as="geometry"/>
                </mxCell>
                <mxCell id="dNWO5NIlt2O0Vma2SlEf-22" value="" style="edgeStyle=orthogonalEdgeStyle;rounded=0;orthogonalLoop=1;jettySize=auto;html=1;startArrow=classic;startFill=1;endArrow=none;endFill=0;" parent="1" source="dNWO5NIlt2O0Vma2SlEf-20" target="dNWO5NIlt2O0Vma2SlEf-21" edge="1">
                    <mxGeometry relative="1" as="geometry"/>
                </mxCell>
                <mxCell id="dNWO5NIlt2O0Vma2SlEf-20" value="&lt;div style=&quot;color: rgb(36, 41, 46);&quot;&gt;&lt;pre style=&quot;font-family:'Meslo LG L DZ for Powerline',monospace;font-size:9.0pt;&quot;&gt;taskStatusMap.remove(taskId)&lt;/pre&gt;&lt;pre style=&quot;font-family:'Meslo LG L DZ for Powerline',monospace;font-size:9.0pt;&quot;&gt;taskPool.remove(taskId)&lt;/pre&gt;&lt;/div&gt;" style="rounded=0;whiteSpace=wrap;html=1;fillColor=#dae8fc;strokeColor=#6c8ebf;labelBackgroundColor=none;" parent="1" vertex="1">
                    <mxGeometry x="160" y="480" width="280" height="60" as="geometry"/>
                </mxCell>
                <mxCell id="dNWO5NIlt2O0Vma2SlEf-21" value="&lt;div style=&quot;background-color:#ffffff;color:#24292e&quot;&gt;&lt;pre style=&quot;font-family:'Meslo LG L DZ for Powerline',monospace;font-size:9.0pt;&quot;&gt;&lt;div&gt;&lt;pre style=&quot;font-family:'Meslo LG L DZ for Powerline',monospace;font-size:9.0pt;&quot;&gt;removeExecutorInfoWithoutExternal(taskId)&lt;/pre&gt;&lt;/div&gt;&lt;/pre&gt;&lt;/div&gt;" style="rounded=0;whiteSpace=wrap;html=1;" parent="1" vertex="1">
                    <mxGeometry x="140" y="620" width="320" height="40" as="geometry"/>
                </mxCell>
                <mxCell id="dNWO5NIlt2O0Vma2SlEf-24" value="" style="edgeStyle=orthogonalEdgeStyle;rounded=0;orthogonalLoop=1;jettySize=auto;html=1;" parent="1" source="dNWO5NIlt2O0Vma2SlEf-23" target="dNWO5NIlt2O0Vma2SlEf-21" edge="1">
                    <mxGeometry relative="1" as="geometry"/>
                </mxCell>
                <mxCell id="dNWO5NIlt2O0Vma2SlEf-23" value="&lt;div style=&quot;color: rgb(36, 41, 46);&quot;&gt;&lt;pre style=&quot;font-family:'Meslo LG L DZ for Powerline',monospace;font-size:9.0pt;&quot;&gt;&lt;div&gt;&lt;pre style=&quot;font-family:'Meslo LG L DZ for Powerline',monospace;font-size:9.0pt;&quot;&gt;executorUnbind(taskId)&lt;/pre&gt;&lt;/div&gt;&lt;/pre&gt;&lt;/div&gt;" style="rounded=0;whiteSpace=wrap;html=1;fillColor=#fff2cc;strokeColor=#d6b656;labelBackgroundColor=none;" parent="1" vertex="1">
                    <mxGeometry x="140" y="720" width="320" height="40" as="geometry"/>
                </mxCell>
                <mxCell id="dNWO5NIlt2O0Vma2SlEf-26" value="" style="edgeStyle=orthogonalEdgeStyle;rounded=0;orthogonalLoop=1;jettySize=auto;html=1;" parent="1" source="dNWO5NIlt2O0Vma2SlEf-25" target="dNWO5NIlt2O0Vma2SlEf-21" edge="1">
                    <mxGeometry relative="1" as="geometry"/>
                </mxCell>
                <mxCell id="dNWO5NIlt2O0Vma2SlEf-25" value="&lt;div style=&quot;background-color:#ffffff;color:#24292e&quot;&gt;&lt;pre style=&quot;font-family:'Meslo LG L DZ for Powerline',monospace;font-size:9.0pt;&quot;&gt;&lt;div&gt;&lt;pre style=&quot;font-family:'Meslo LG L DZ for Powerline',monospace;font-size:9.0pt;&quot;&gt;removeExecutorInfo(taskId)&lt;/pre&gt;&lt;/div&gt;&lt;/pre&gt;&lt;/div&gt;" style="rounded=0;whiteSpace=wrap;html=1;" parent="1" vertex="1">
                    <mxGeometry x="520" y="620" width="320" height="40" as="geometry"/>
                </mxCell>
                <mxCell id="dNWO5NIlt2O0Vma2SlEf-28" value="" style="edgeStyle=orthogonalEdgeStyle;rounded=0;orthogonalLoop=1;jettySize=auto;html=1;" parent="1" source="dNWO5NIlt2O0Vma2SlEf-27" target="dNWO5NIlt2O0Vma2SlEf-23" edge="1">
                    <mxGeometry relative="1" as="geometry"/>
                </mxCell>
                <mxCell id="dNWO5NIlt2O0Vma2SlEf-27" value="&lt;div style=&quot;color: rgb(36, 41, 46);&quot;&gt;&lt;pre style=&quot;font-family:'Meslo LG L DZ for Powerline',monospace;font-size:9.0pt;&quot;&gt;RecyclableEngineCoordinator::stopProcessingExecutor(config)&lt;/pre&gt;&lt;/div&gt;" style="rounded=0;whiteSpace=wrap;html=1;fillColor=#d5e8d4;strokeColor=#82b366;labelBackgroundColor=none;" parent="1" vertex="1">
                    <mxGeometry x="20" y="820" width="560" height="40" as="geometry"/>
                </mxCell>
                <mxCell id="dNWO5NIlt2O0Vma2SlEf-30" value="" style="edgeStyle=orthogonalEdgeStyle;rounded=0;orthogonalLoop=1;jettySize=auto;html=1;" parent="1" source="dNWO5NIlt2O0Vma2SlEf-29" target="dNWO5NIlt2O0Vma2SlEf-23" edge="1">
                    <mxGeometry relative="1" as="geometry"/>
                </mxCell>
                <mxCell id="dNWO5NIlt2O0Vma2SlEf-29" value="&lt;div style=&quot;color: rgb(36, 41, 46);&quot;&gt;&lt;pre style=&quot;font-family:'Meslo LG L DZ for Powerline',monospace;font-size:9.0pt;&quot;&gt;RecyclableExecutorTaskRunner::run()&lt;/pre&gt;&lt;/div&gt;" style="rounded=0;whiteSpace=wrap;html=1;fillColor=#f5f5f5;fontColor=#333333;strokeColor=#666666;labelBackgroundColor=none;" parent="1" vertex="1">
                    <mxGeometry x="520" y="720" width="320" height="40" as="geometry"/>
                </mxCell>
                <mxCell id="dNWO5NIlt2O0Vma2SlEf-32" value="" style="edgeStyle=orthogonalEdgeStyle;rounded=0;orthogonalLoop=1;jettySize=auto;html=1;startArrow=classic;startFill=1;endArrow=none;endFill=0;entryX=0.5;entryY=1;entryDx=0;entryDy=0;" parent="1" source="dNWO5NIlt2O0Vma2SlEf-1" target="dNWO5NIlt2O0Vma2SlEf-4" edge="1">
                    <mxGeometry relative="1" as="geometry">
                        <mxPoint x="300" y="160" as="sourcePoint"/>
                        <mxPoint x="300" y="130" as="targetPoint"/>
                    </mxGeometry>
                </mxCell>
                <mxCell id="dNWO5NIlt2O0Vma2SlEf-33" value="&lt;pre style=&quot;border-color: var(--border-color); color: rgb(36, 41, 46); font-size: 9pt; font-family: &amp;quot;Meslo LG L DZ for Powerline&amp;quot;, monospace;&quot;&gt;taskExecutorBindMap.remove(taskId)&lt;/pre&gt;" style="text;html=1;align=center;verticalAlign=middle;resizable=0;points=[];autosize=1;strokeColor=none;fillColor=none;" parent="1" vertex="1">
                    <mxGeometry x="165" y="680" width="270" height="50" as="geometry"/>
                </mxCell>
                <mxCell id="dNWO5NIlt2O0Vma2SlEf-34" value="&lt;pre style=&quot;border-color: var(--border-color); color: rgb(36, 41, 46); font-size: 9pt; font-family: &amp;quot;Meslo LG L DZ for Powerline&amp;quot;, monospace;&quot;&gt;taskExecutorBindMap.put(taskId, executor)&lt;/pre&gt;" style="text;html=1;align=center;verticalAlign=middle;resizable=0;points=[];autosize=1;strokeColor=none;fillColor=none;" parent="1" vertex="1">
                    <mxGeometry x="140" y="70" width="320" height="50" as="geometry"/>
                </mxCell>
                <mxCell id="dNWO5NIlt2O0Vma2SlEf-35" value="&lt;div style=&quot;background-color:#ffffff;color:#24292e&quot;&gt;&lt;pre style=&quot;font-family:'Meslo LG L DZ for Powerline',monospace;font-size:9.0pt;&quot;&gt;EngineCoordinator::createNativeExecutorTaskRunner(config, actionName)&lt;/pre&gt;&lt;/div&gt;" style="rounded=0;whiteSpace=wrap;html=1;" parent="1" vertex="1">
                    <mxGeometry x="520" y="280" width="520" height="40" as="geometry"/>
                </mxCell>
                <mxCell id="dNWO5NIlt2O0Vma2SlEf-39" value="" style="edgeStyle=orthogonalEdgeStyle;rounded=0;orthogonalLoop=1;jettySize=auto;html=1;entryX=0.5;entryY=0;entryDx=0;entryDy=0;exitX=0.5;exitY=1;exitDx=0;exitDy=0;" parent="1" source="dNWO5NIlt2O0Vma2SlEf-15" target="dNWO5NIlt2O0Vma2SlEf-8" edge="1">
                    <mxGeometry relative="1" as="geometry">
                        <mxPoint x="310" y="-80" as="sourcePoint"/>
                        <mxPoint x="310" y="50" as="targetPoint"/>
                        <Array as="points">
                            <mxPoint x="300" y="-40"/>
                            <mxPoint x="-80" y="-40"/>
                        </Array>
                    </mxGeometry>
                </mxCell>
                <mxCell id="i6x4H1vcPH9HtJ-ufQRd-2" value="" style="edgeStyle=orthogonalEdgeStyle;rounded=0;orthogonalLoop=1;jettySize=auto;html=1;" parent="1" source="i6x4H1vcPH9HtJ-ufQRd-1" target="dNWO5NIlt2O0Vma2SlEf-25" edge="1">
                    <mxGeometry relative="1" as="geometry"/>
                </mxCell>
                <mxCell id="i6x4H1vcPH9HtJ-ufQRd-1" value="&lt;div style=&quot;color: rgb(36, 41, 46);&quot;&gt;&lt;pre style=&quot;font-family:'Meslo LG L DZ for Powerline',monospace;font-size:9.0pt;&quot;&gt;&lt;pre style=&quot;font-family:'Meslo LG L DZ for Powerline',monospace;font-size:9.0pt;&quot;&gt;&lt;div&gt;&lt;pre style=&quot;font-family:'Meslo LG L DZ for Powerline',monospace;font-size:9.0pt;&quot;&gt;DestroyExecutorTaskRunner&lt;/pre&gt;&lt;/div&gt;&lt;/pre&gt;&lt;/pre&gt;&lt;/div&gt;" style="rounded=0;whiteSpace=wrap;html=1;fillColor=#d5e8d4;strokeColor=#82b366;labelBackgroundColor=none;" parent="1" vertex="1">
                    <mxGeometry x="520" y="520" width="320" height="40" as="geometry"/>
                </mxCell>
            </root>
        </mxGraphModel>
    </diagram>
    <diagram id="KOn-2aH5kG4Mdi9b4oG_" name="stream engine structure">
        <mxGraphModel dx="1055" dy="728" grid="1" gridSize="10" guides="1" tooltips="1" connect="1" arrows="1" fold="1" page="1" pageScale="1" pageWidth="827" pageHeight="1169" math="0" shadow="0">
            <root>
                <mxCell id="0"/>
                <mxCell id="1" parent="0"/>
                <mxCell id="oHwJVF8VB4xXm1WmHKps-2" value="" style="rounded=0;whiteSpace=wrap;html=1;" vertex="1" parent="1">
                    <mxGeometry x="120" y="2960" width="340" height="250" as="geometry"/>
                </mxCell>
                <mxCell id="oHwJVF8VB4xXm1WmHKps-32" value="" style="rounded=0;whiteSpace=wrap;html=1;" vertex="1" parent="1">
                    <mxGeometry x="140" y="3070" width="110" height="130" as="geometry"/>
                </mxCell>
                <mxCell id="P_zWO6fEHSI2zEw9zOE--36" value="WorkerPool" style="rounded=0;whiteSpace=wrap;html=1;align=center;verticalAlign=middle;fontFamily=Helvetica;fontSize=12;fillColor=#d5e8d4;strokeColor=#82b366;" parent="1" vertex="1">
                    <mxGeometry x="720" y="2750" width="840" height="60" as="geometry"/>
                </mxCell>
                <mxCell id="moNEwcxK6t8OCQCpNkJ9-124" value="" style="rounded=0;whiteSpace=wrap;html=1;align=center;verticalAlign=middle;fontFamily=Helvetica;fontSize=12;fillColor=#f5f5f5;dashed=1;fontColor=#333333;strokeColor=#666666;" parent="1" vertex="1">
                    <mxGeometry x="70" y="1900" width="80" height="330" as="geometry"/>
                </mxCell>
                <mxCell id="moNEwcxK6t8OCQCpNkJ9-138" value="" style="rounded=0;orthogonalLoop=1;jettySize=auto;html=1;fontFamily=Helvetica;fontSize=12;fontColor=#333333;entryX=0.5;entryY=0;entryDx=0;entryDy=0;" parent="1" source="moNEwcxK6t8OCQCpNkJ9-137" target="moNEwcxK6t8OCQCpNkJ9-136" edge="1">
                    <mxGeometry relative="1" as="geometry"/>
                </mxCell>
                <mxCell id="moNEwcxK6t8OCQCpNkJ9-137" value="" style="rounded=0;whiteSpace=wrap;html=1;strokeColor=#666666;align=center;verticalAlign=middle;fontFamily=Helvetica;fontSize=12;fontColor=#333333;fillColor=none;dashed=1;" parent="1" vertex="1">
                    <mxGeometry x="160" y="2060" width="330" height="70" as="geometry"/>
                </mxCell>
                <mxCell id="moNEwcxK6t8OCQCpNkJ9-136" value="" style="rounded=0;whiteSpace=wrap;html=1;strokeColor=#6c8ebf;align=center;verticalAlign=middle;fontFamily=Helvetica;fontSize=12;fillColor=#dae8fc;dashed=1;" parent="1" vertex="1">
                    <mxGeometry x="160" y="2160" width="330" height="70" as="geometry"/>
                </mxCell>
                <mxCell id="moNEwcxK6t8OCQCpNkJ9-134" value="" style="ellipse;whiteSpace=wrap;html=1;rounded=0;align=center;verticalAlign=middle;fontFamily=Helvetica;fontSize=12;fillColor=#fff2cc;strokeColor=#d6b656;" parent="1" vertex="1">
                    <mxGeometry x="160" y="1895" width="330" height="135" as="geometry"/>
                </mxCell>
                <mxCell id="moNEwcxK6t8OCQCpNkJ9-120" value="" style="rounded=0;whiteSpace=wrap;html=1;strokeColor=#666666;align=center;verticalAlign=middle;fontFamily=Helvetica;fontSize=12;fontColor=#333333;fillColor=none;dashed=1;" parent="1" vertex="1">
                    <mxGeometry x="110" y="1680" width="400" height="80" as="geometry"/>
                </mxCell>
                <mxCell id="moNEwcxK6t8OCQCpNkJ9-118" value="" style="rounded=0;whiteSpace=wrap;html=1;strokeColor=#666666;align=center;verticalAlign=middle;fontFamily=Helvetica;fontSize=12;fontColor=#333333;fillColor=none;dashed=1;" parent="1" vertex="1">
                    <mxGeometry x="110" y="1780" width="400" height="80" as="geometry"/>
                </mxCell>
                <mxCell id="moNEwcxK6t8OCQCpNkJ9-88" value="" style="edgeStyle=orthogonalEdgeStyle;rounded=0;orthogonalLoop=1;jettySize=auto;html=1;fontFamily=Helvetica;fontSize=12;fontColor=#333333;" parent="1" source="moNEwcxK6t8OCQCpNkJ9-66" target="moNEwcxK6t8OCQCpNkJ9-87" edge="1">
                    <mxGeometry relative="1" as="geometry"/>
                </mxCell>
                <mxCell id="moNEwcxK6t8OCQCpNkJ9-66" value="" style="rounded=0;whiteSpace=wrap;html=1;align=center;verticalAlign=middle;fontFamily=Helvetica;fontSize=12;fillColor=none;" parent="1" vertex="1">
                    <mxGeometry x="40" y="990" width="380" height="200" as="geometry"/>
                </mxCell>
                <mxCell id="moNEwcxK6t8OCQCpNkJ9-82" value="" style="rounded=0;whiteSpace=wrap;html=1;align=center;verticalAlign=middle;fontFamily=Helvetica;fontSize=12;fillColor=#f9f7ed;dashed=1;dashPattern=8 8;strokeColor=#36393d;" parent="1" vertex="1">
                    <mxGeometry x="289" y="1000" width="120" height="180" as="geometry"/>
                </mxCell>
                <mxCell id="moNEwcxK6t8OCQCpNkJ9-65" value="" style="rounded=0;whiteSpace=wrap;html=1;align=center;verticalAlign=middle;fontFamily=Helvetica;fontSize=12;dashed=1;" parent="1" vertex="1">
                    <mxGeometry x="40" y="780" width="480" height="160" as="geometry"/>
                </mxCell>
                <mxCell id="moNEwcxK6t8OCQCpNkJ9-62" value="" style="rounded=0;whiteSpace=wrap;html=1;align=center;verticalAlign=middle;fontFamily=Helvetica;fontSize=12;dashed=1;" parent="1" vertex="1">
                    <mxGeometry x="40" y="310" width="420" height="160" as="geometry"/>
                </mxCell>
                <mxCell id="moNEwcxK6t8OCQCpNkJ9-2" value="" style="rounded=0;whiteSpace=wrap;html=1;" parent="1" vertex="1">
                    <mxGeometry x="50" y="320" width="210" height="140" as="geometry"/>
                </mxCell>
                <mxCell id="moNEwcxK6t8OCQCpNkJ9-4" value="" style="rounded=0;whiteSpace=wrap;html=1;" parent="1" vertex="1">
                    <mxGeometry x="289" y="320" width="160" height="140" as="geometry"/>
                </mxCell>
                <mxCell id="moNEwcxK6t8OCQCpNkJ9-1" value="" style="rounded=0;whiteSpace=wrap;html=1;" parent="1" vertex="1">
                    <mxGeometry x="40" y="90" width="420" height="190" as="geometry"/>
                </mxCell>
                <mxCell id="moNEwcxK6t8OCQCpNkJ9-3" value="" style="edgeStyle=orthogonalEdgeStyle;rounded=0;orthogonalLoop=1;jettySize=auto;html=1;" parent="1" source="moNEwcxK6t8OCQCpNkJ9-1" target="moNEwcxK6t8OCQCpNkJ9-2" edge="1">
                    <mxGeometry relative="1" as="geometry"/>
                </mxCell>
                <mxCell id="moNEwcxK6t8OCQCpNkJ9-6" value="" style="edgeStyle=orthogonalEdgeStyle;rounded=0;orthogonalLoop=1;jettySize=auto;html=1;" parent="1" source="moNEwcxK6t8OCQCpNkJ9-1" target="moNEwcxK6t8OCQCpNkJ9-4" edge="1">
                    <mxGeometry relative="1" as="geometry"/>
                </mxCell>
                <mxCell id="moNEwcxK6t8OCQCpNkJ9-9" value="&lt;b&gt;Coordinator&lt;/b&gt;" style="text;html=1;align=center;verticalAlign=middle;resizable=0;points=[];autosize=1;strokeColor=none;fillColor=none;" parent="1" vertex="1">
                    <mxGeometry x="40" y="90" width="90" height="30" as="geometry"/>
                </mxCell>
                <mxCell id="moNEwcxK6t8OCQCpNkJ9-10" value="Scheduler" style="rounded=1;whiteSpace=wrap;html=1;" parent="1" vertex="1">
                    <mxGeometry x="60" y="170" width="160" height="40" as="geometry"/>
                </mxCell>
                <mxCell id="moNEwcxK6t8OCQCpNkJ9-11" value="Router" style="rounded=1;whiteSpace=wrap;html=1;" parent="1" vertex="1">
                    <mxGeometry x="60" y="120" width="160" height="40" as="geometry"/>
                </mxCell>
                <mxCell id="moNEwcxK6t8OCQCpNkJ9-12" value="ExecutorPool" style="rounded=1;whiteSpace=wrap;html=1;" parent="1" vertex="1">
                    <mxGeometry x="280" y="120" width="160" height="40" as="geometry"/>
                </mxCell>
                <mxCell id="moNEwcxK6t8OCQCpNkJ9-13" value="PoolManager" style="rounded=1;whiteSpace=wrap;html=1;" parent="1" vertex="1">
                    <mxGeometry x="280" y="170" width="160" height="40" as="geometry"/>
                </mxCell>
                <mxCell id="moNEwcxK6t8OCQCpNkJ9-18" value="&lt;b&gt;Executor&lt;/b&gt;" style="text;html=1;align=center;verticalAlign=middle;resizable=0;points=[];autosize=1;strokeColor=none;fillColor=none;" parent="1" vertex="1">
                    <mxGeometry x="50" y="320" width="70" height="30" as="geometry"/>
                </mxCell>
                <mxCell id="moNEwcxK6t8OCQCpNkJ9-19" value="live recording" style="rounded=1;whiteSpace=wrap;html=1;" parent="1" vertex="1">
                    <mxGeometry x="60" y="350" width="90" height="30" as="geometry"/>
                </mxCell>
                <mxCell id="moNEwcxK6t8OCQCpNkJ9-20" value="&lt;b&gt;Proxy&lt;/b&gt;" style="text;html=1;align=center;verticalAlign=middle;resizable=0;points=[];autosize=1;strokeColor=none;fillColor=none;" parent="1" vertex="1">
                    <mxGeometry x="284" y="320" width="60" height="30" as="geometry"/>
                </mxCell>
                <mxCell id="moNEwcxK6t8OCQCpNkJ9-23" value="snapshot" style="rounded=1;whiteSpace=wrap;html=1;" parent="1" vertex="1">
                    <mxGeometry x="160" y="350" width="90" height="30" as="geometry"/>
                </mxCell>
                <mxCell id="moNEwcxK6t8OCQCpNkJ9-24" value="transcode" style="rounded=1;whiteSpace=wrap;html=1;" parent="1" vertex="1">
                    <mxGeometry x="60" y="380" width="90" height="30" as="geometry"/>
                </mxCell>
                <mxCell id="moNEwcxK6t8OCQCpNkJ9-25" value="nerf" style="rounded=1;whiteSpace=wrap;html=1;" parent="1" vertex="1">
                    <mxGeometry x="160" y="380" width="90" height="30" as="geometry"/>
                </mxCell>
                <mxCell id="moNEwcxK6t8OCQCpNkJ9-26" value="Executor runtime" style="rounded=1;whiteSpace=wrap;html=1;" parent="1" vertex="1">
                    <mxGeometry x="60" y="420" width="190" height="30" as="geometry"/>
                </mxCell>
                <mxCell id="moNEwcxK6t8OCQCpNkJ9-27" value="tr" style="rounded=1;whiteSpace=wrap;html=1;" parent="1" vertex="1">
                    <mxGeometry x="299" y="350" width="60" height="40" as="geometry"/>
                </mxCell>
                <mxCell id="moNEwcxK6t8OCQCpNkJ9-28" value="sofamq" style="rounded=1;whiteSpace=wrap;html=1;" parent="1" vertex="1">
                    <mxGeometry x="379" y="350" width="60" height="40" as="geometry"/>
                </mxCell>
                <mxCell id="moNEwcxK6t8OCQCpNkJ9-29" value="Handler" style="rounded=1;whiteSpace=wrap;html=1;" parent="1" vertex="1">
                    <mxGeometry x="299" y="410" width="140" height="40" as="geometry"/>
                </mxCell>
                <mxCell id="moNEwcxK6t8OCQCpNkJ9-32" value="TaskRunner" style="rounded=1;whiteSpace=wrap;html=1;" parent="1" vertex="1">
                    <mxGeometry x="60" y="220" width="160" height="40" as="geometry"/>
                </mxCell>
                <mxCell id="moNEwcxK6t8OCQCpNkJ9-33" value="FailoverManager" style="rounded=1;whiteSpace=wrap;html=1;" parent="1" vertex="1">
                    <mxGeometry x="280" y="220" width="160" height="40" as="geometry"/>
                </mxCell>
                <mxCell id="moNEwcxK6t8OCQCpNkJ9-35" value="" style="rounded=0;whiteSpace=wrap;html=1;" parent="1" vertex="1">
                    <mxGeometry x="50" y="790" width="250" height="140" as="geometry"/>
                </mxCell>
                <mxCell id="moNEwcxK6t8OCQCpNkJ9-36" value="" style="rounded=0;whiteSpace=wrap;html=1;" parent="1" vertex="1">
                    <mxGeometry x="330" y="790" width="180" height="140" as="geometry"/>
                </mxCell>
                <mxCell id="moNEwcxK6t8OCQCpNkJ9-37" value="" style="rounded=0;whiteSpace=wrap;html=1;" parent="1" vertex="1">
                    <mxGeometry x="40" y="560" width="480" height="190" as="geometry"/>
                </mxCell>
                <mxCell id="moNEwcxK6t8OCQCpNkJ9-38" value="" style="edgeStyle=orthogonalEdgeStyle;rounded=0;orthogonalLoop=1;jettySize=auto;html=1;" parent="1" source="moNEwcxK6t8OCQCpNkJ9-37" target="moNEwcxK6t8OCQCpNkJ9-35" edge="1">
                    <mxGeometry relative="1" as="geometry"/>
                </mxCell>
                <mxCell id="moNEwcxK6t8OCQCpNkJ9-39" value="" style="edgeStyle=orthogonalEdgeStyle;rounded=0;orthogonalLoop=1;jettySize=auto;html=1;" parent="1" source="moNEwcxK6t8OCQCpNkJ9-37" target="moNEwcxK6t8OCQCpNkJ9-36" edge="1">
                    <mxGeometry relative="1" as="geometry"/>
                </mxCell>
                <mxCell id="moNEwcxK6t8OCQCpNkJ9-40" value="&lt;b&gt;Coordinator&lt;/b&gt;" style="text;html=1;align=center;verticalAlign=middle;resizable=0;points=[];autosize=1;strokeColor=none;fillColor=none;" parent="1" vertex="1">
                    <mxGeometry x="40" y="560" width="90" height="30" as="geometry"/>
                </mxCell>
                <mxCell id="moNEwcxK6t8OCQCpNkJ9-41" value="Scheduler" style="rounded=1;whiteSpace=wrap;html=1;fillColor=#ffe6cc;strokeColor=#d79b00;" parent="1" vertex="1">
                    <mxGeometry x="50" y="640" width="150" height="40" as="geometry"/>
                </mxCell>
                <mxCell id="moNEwcxK6t8OCQCpNkJ9-42" value="Router" style="rounded=1;whiteSpace=wrap;html=1;" parent="1" vertex="1">
                    <mxGeometry x="50" y="590" width="150" height="40" as="geometry"/>
                </mxCell>
                <mxCell id="moNEwcxK6t8OCQCpNkJ9-43" value="ExecutorPool" style="rounded=1;whiteSpace=wrap;html=1;" parent="1" vertex="1">
                    <mxGeometry x="215" y="590" width="150" height="40" as="geometry"/>
                </mxCell>
                <mxCell id="moNEwcxK6t8OCQCpNkJ9-44" value="PoolManager" style="rounded=1;whiteSpace=wrap;html=1;" parent="1" vertex="1">
                    <mxGeometry x="215" y="640" width="150" height="40" as="geometry"/>
                </mxCell>
                <mxCell id="moNEwcxK6t8OCQCpNkJ9-45" value="&lt;b&gt;Executor&lt;/b&gt;" style="text;html=1;align=center;verticalAlign=middle;resizable=0;points=[];autosize=1;strokeColor=none;fillColor=none;" parent="1" vertex="1">
                    <mxGeometry x="50" y="790" width="70" height="30" as="geometry"/>
                </mxCell>
                <mxCell id="moNEwcxK6t8OCQCpNkJ9-46" value="live recording" style="rounded=1;whiteSpace=wrap;html=1;" parent="1" vertex="1">
                    <mxGeometry x="70" y="820" width="100" height="30" as="geometry"/>
                </mxCell>
                <mxCell id="moNEwcxK6t8OCQCpNkJ9-47" value="&lt;b&gt;Proxy&lt;/b&gt;" style="text;html=1;align=center;verticalAlign=middle;resizable=0;points=[];autosize=1;strokeColor=none;fillColor=none;" parent="1" vertex="1">
                    <mxGeometry x="355" y="790" width="60" height="30" as="geometry"/>
                </mxCell>
                <mxCell id="moNEwcxK6t8OCQCpNkJ9-48" value="snapshot" style="rounded=1;whiteSpace=wrap;html=1;" parent="1" vertex="1">
                    <mxGeometry x="180" y="820" width="100" height="30" as="geometry"/>
                </mxCell>
                <mxCell id="moNEwcxK6t8OCQCpNkJ9-49" value="transcode" style="rounded=1;whiteSpace=wrap;html=1;" parent="1" vertex="1">
                    <mxGeometry x="70" y="850" width="100" height="30" as="geometry"/>
                </mxCell>
                <mxCell id="moNEwcxK6t8OCQCpNkJ9-50" value="nerf" style="rounded=1;whiteSpace=wrap;html=1;" parent="1" vertex="1">
                    <mxGeometry x="180" y="850" width="100" height="30" as="geometry"/>
                </mxCell>
                <mxCell id="moNEwcxK6t8OCQCpNkJ9-51" value="Executor runtime" style="rounded=1;whiteSpace=wrap;html=1;" parent="1" vertex="1">
                    <mxGeometry x="70" y="890" width="210" height="30" as="geometry"/>
                </mxCell>
                <mxCell id="moNEwcxK6t8OCQCpNkJ9-52" value="tr" style="rounded=1;whiteSpace=wrap;html=1;" parent="1" vertex="1">
                    <mxGeometry x="344" y="820" width="70" height="40" as="geometry"/>
                </mxCell>
                <mxCell id="moNEwcxK6t8OCQCpNkJ9-53" value="sofamq" style="rounded=1;whiteSpace=wrap;html=1;" parent="1" vertex="1">
                    <mxGeometry x="424" y="820" width="70" height="40" as="geometry"/>
                </mxCell>
                <mxCell id="moNEwcxK6t8OCQCpNkJ9-54" value="Handler" style="rounded=1;whiteSpace=wrap;html=1;" parent="1" vertex="1">
                    <mxGeometry x="344" y="880" width="150" height="40" as="geometry"/>
                </mxCell>
                <mxCell id="moNEwcxK6t8OCQCpNkJ9-55" value="HealthChecker" style="rounded=1;whiteSpace=wrap;html=1;fillColor=#d5e8d4;strokeColor=#82b366;" parent="1" vertex="1">
                    <mxGeometry x="380" y="590" width="130" height="60" as="geometry"/>
                </mxCell>
                <mxCell id="moNEwcxK6t8OCQCpNkJ9-56" value="MigrationManager" style="rounded=1;whiteSpace=wrap;html=1;fillColor=#d5e8d4;strokeColor=#82b366;" parent="1" vertex="1">
                    <mxGeometry x="380" y="670" width="130" height="60" as="geometry"/>
                </mxCell>
                <mxCell id="moNEwcxK6t8OCQCpNkJ9-57" value="TaskRunner" style="rounded=1;whiteSpace=wrap;html=1;fillColor=#ffe6cc;strokeColor=#d79b00;" parent="1" vertex="1">
                    <mxGeometry x="50" y="690" width="150" height="40" as="geometry"/>
                </mxCell>
                <mxCell id="moNEwcxK6t8OCQCpNkJ9-58" value="FailoverManager" style="rounded=1;whiteSpace=wrap;html=1;fillColor=#ffe6cc;strokeColor=#d79b00;" parent="1" vertex="1">
                    <mxGeometry x="215" y="690" width="150" height="40" as="geometry"/>
                </mxCell>
                <mxCell id="moNEwcxK6t8OCQCpNkJ9-60" value="Monitor" style="rounded=0;whiteSpace=wrap;html=1;fillColor=#fff2cc;strokeColor=#d6b656;" parent="1" vertex="1">
                    <mxGeometry x="530" y="560" width="80" height="200" as="geometry"/>
                </mxCell>
                <mxCell id="moNEwcxK6t8OCQCpNkJ9-61" value="Alarm" style="rounded=0;whiteSpace=wrap;html=1;fillColor=#fff2cc;strokeColor=#d6b656;" parent="1" vertex="1">
                    <mxGeometry x="530" y="760" width="80" height="180" as="geometry"/>
                </mxCell>
                <mxCell id="moNEwcxK6t8OCQCpNkJ9-70" value="Engine States" style="rounded=0;whiteSpace=wrap;html=1;align=center;verticalAlign=middle;fontFamily=Helvetica;fontSize=12;fillColor=#dae8fc;strokeColor=#6c8ebf;" parent="1" vertex="1">
                    <mxGeometry x="50" y="1100" width="80" height="60" as="geometry"/>
                </mxCell>
                <mxCell id="moNEwcxK6t8OCQCpNkJ9-81" value="" style="edgeStyle=orthogonalEdgeStyle;rounded=0;orthogonalLoop=1;jettySize=auto;html=1;fontFamily=Helvetica;fontSize=12;fontColor=#333333;" parent="1" source="moNEwcxK6t8OCQCpNkJ9-71" target="moNEwcxK6t8OCQCpNkJ9-80" edge="1">
                    <mxGeometry relative="1" as="geometry"/>
                </mxCell>
                <mxCell id="moNEwcxK6t8OCQCpNkJ9-71" value="HealthCheker" style="rounded=1;whiteSpace=wrap;html=1;align=center;verticalAlign=middle;fontFamily=Helvetica;fontSize=12;fillColor=default;" parent="1" vertex="1">
                    <mxGeometry x="50" y="1000" width="100" height="40" as="geometry"/>
                </mxCell>
                <mxCell id="moNEwcxK6t8OCQCpNkJ9-72" value="Resources" style="rounded=1;whiteSpace=wrap;html=1;align=center;verticalAlign=middle;fontFamily=Helvetica;fontSize=12;fillColor=#fff2cc;strokeColor=#d6b656;" parent="1" vertex="1">
                    <mxGeometry x="299" y="1010" width="100" height="40" as="geometry"/>
                </mxCell>
                <mxCell id="moNEwcxK6t8OCQCpNkJ9-74" value="Healthy" style="rounded=1;whiteSpace=wrap;html=1;align=center;verticalAlign=middle;fontFamily=Helvetica;fontSize=12;fillColor=#dae8fc;strokeColor=#6c8ebf;" parent="1" vertex="1">
                    <mxGeometry x="130" y="1100" width="70" height="20" as="geometry"/>
                </mxCell>
                <mxCell id="moNEwcxK6t8OCQCpNkJ9-75" value="Stressful" style="rounded=1;whiteSpace=wrap;html=1;align=center;verticalAlign=middle;fontFamily=Helvetica;fontSize=12;fillColor=#dae8fc;strokeColor=#6c8ebf;" parent="1" vertex="1">
                    <mxGeometry x="130" y="1120" width="70" height="20" as="geometry"/>
                </mxCell>
                <mxCell id="moNEwcxK6t8OCQCpNkJ9-76" value="Autistic" style="rounded=1;whiteSpace=wrap;html=1;align=center;verticalAlign=middle;fontFamily=Helvetica;fontSize=12;fillColor=#dae8fc;strokeColor=#6c8ebf;" parent="1" vertex="1">
                    <mxGeometry x="130" y="1140" width="70" height="20" as="geometry"/>
                </mxCell>
                <mxCell id="moNEwcxK6t8OCQCpNkJ9-77" value="Coordinator" style="rounded=1;whiteSpace=wrap;html=1;align=center;verticalAlign=middle;fontFamily=Helvetica;fontSize=12;fillColor=#fff2cc;strokeColor=#d6b656;" parent="1" vertex="1">
                    <mxGeometry x="299" y="1060" width="100" height="40" as="geometry"/>
                </mxCell>
                <mxCell id="moNEwcxK6t8OCQCpNkJ9-78" value="Executor" style="rounded=1;whiteSpace=wrap;html=1;align=center;verticalAlign=middle;fontFamily=Helvetica;fontSize=12;fillColor=#fff2cc;strokeColor=#d6b656;" parent="1" vertex="1">
                    <mxGeometry x="299" y="1110" width="100" height="40" as="geometry"/>
                </mxCell>
                <mxCell id="moNEwcxK6t8OCQCpNkJ9-83" value="" style="rounded=0;orthogonalLoop=1;jettySize=auto;html=1;fontFamily=Helvetica;fontSize=12;fontColor=#333333;entryX=0;entryY=0.5;entryDx=0;entryDy=0;edgeStyle=elbowEdgeStyle;" parent="1" source="moNEwcxK6t8OCQCpNkJ9-80" target="moNEwcxK6t8OCQCpNkJ9-82" edge="1">
                    <mxGeometry relative="1" as="geometry"/>
                </mxCell>
                <mxCell id="moNEwcxK6t8OCQCpNkJ9-86" value="" style="rounded=0;orthogonalLoop=1;jettySize=auto;html=1;fontFamily=Helvetica;fontSize=12;fontColor=#333333;entryX=0.5;entryY=0;entryDx=0;entryDy=0;exitX=0.5;exitY=1;exitDx=0;exitDy=0;edgeStyle=orthogonalEdgeStyle;" parent="1" source="moNEwcxK6t8OCQCpNkJ9-80" target="moNEwcxK6t8OCQCpNkJ9-70" edge="1">
                    <mxGeometry relative="1" as="geometry"/>
                </mxCell>
                <mxCell id="moNEwcxK6t8OCQCpNkJ9-80" value="HealthStrategy" style="rounded=1;whiteSpace=wrap;html=1;align=center;verticalAlign=middle;fontFamily=Helvetica;fontSize=12;fillColor=#ffe6cc;strokeColor=#d79b00;" parent="1" vertex="1">
                    <mxGeometry x="170" y="1000" width="100" height="40" as="geometry"/>
                </mxCell>
                <mxCell id="moNEwcxK6t8OCQCpNkJ9-85" value="ConcretedStrategy" style="text;html=1;align=center;verticalAlign=middle;resizable=0;points=[];autosize=1;strokeColor=none;fillColor=none;fontSize=12;fontFamily=Helvetica;fontColor=#333333;" parent="1" vertex="1">
                    <mxGeometry x="289" y="1150" width="120" height="30" as="geometry"/>
                </mxCell>
                <mxCell id="moNEwcxK6t8OCQCpNkJ9-87" value="Media Service" style="rounded=0;whiteSpace=wrap;html=1;strokeColor=#666666;align=center;verticalAlign=middle;fontFamily=Helvetica;fontSize=12;fontColor=#333333;fillColor=#f5f5f5;" parent="1" vertex="1">
                    <mxGeometry x="440" y="990" width="80" height="200" as="geometry"/>
                </mxCell>
                <mxCell id="moNEwcxK6t8OCQCpNkJ9-91" value="" style="edgeStyle=orthogonalEdgeStyle;rounded=0;orthogonalLoop=1;jettySize=auto;html=1;fontFamily=Helvetica;fontSize=12;fontColor=#333333;endArrow=none;endFill=0;startArrow=classic;startFill=1;" parent="1" source="moNEwcxK6t8OCQCpNkJ9-89" target="moNEwcxK6t8OCQCpNkJ9-90" edge="1">
                    <mxGeometry relative="1" as="geometry"/>
                </mxCell>
                <mxCell id="moNEwcxK6t8OCQCpNkJ9-92" value="1. Subscribe migration events" style="edgeLabel;html=1;align=center;verticalAlign=middle;resizable=0;points=[];fontSize=12;fontFamily=Helvetica;fontColor=#333333;" parent="moNEwcxK6t8OCQCpNkJ9-91" vertex="1" connectable="0">
                    <mxGeometry x="-0.3431" y="-1" relative="1" as="geometry">
                        <mxPoint x="31" y="-2" as="offset"/>
                    </mxGeometry>
                </mxCell>
                <mxCell id="moNEwcxK6t8OCQCpNkJ9-89" value="Ray System Actor&lt;br&gt;(EventBroker)" style="rounded=0;whiteSpace=wrap;html=1;strokeColor=#666666;align=center;verticalAlign=middle;fontFamily=Helvetica;fontSize=12;fontColor=#333333;fillColor=#f5f5f5;" parent="1" vertex="1">
                    <mxGeometry x="80" y="1270" width="120" height="50" as="geometry"/>
                </mxCell>
                <mxCell id="moNEwcxK6t8OCQCpNkJ9-94" value="2. Mark healthy state as Migrating" style="edgeStyle=orthogonalEdgeStyle;rounded=0;orthogonalLoop=1;jettySize=auto;html=1;fontFamily=Helvetica;fontSize=12;fontColor=#333333;" parent="1" source="moNEwcxK6t8OCQCpNkJ9-90" target="moNEwcxK6t8OCQCpNkJ9-93" edge="1">
                    <mxGeometry relative="1" as="geometry"/>
                </mxCell>
                <mxCell id="moNEwcxK6t8OCQCpNkJ9-90" value="Coordinator" style="rounded=0;whiteSpace=wrap;html=1;strokeColor=#6c8ebf;align=center;verticalAlign=middle;fontFamily=Helvetica;fontSize=12;fillColor=#dae8fc;" parent="1" vertex="1">
                    <mxGeometry x="379" y="1270" width="120" height="50" as="geometry"/>
                </mxCell>
                <mxCell id="moNEwcxK6t8OCQCpNkJ9-97" value="" style="edgeStyle=orthogonalEdgeStyle;rounded=0;orthogonalLoop=1;jettySize=auto;html=1;fontFamily=Helvetica;fontSize=12;fontColor=#333333;" parent="1" source="moNEwcxK6t8OCQCpNkJ9-93" target="moNEwcxK6t8OCQCpNkJ9-96" edge="1">
                    <mxGeometry relative="1" as="geometry"/>
                </mxCell>
                <mxCell id="moNEwcxK6t8OCQCpNkJ9-98" value="3. Migrate&amp;nbsp; actors" style="edgeLabel;html=1;align=center;verticalAlign=middle;resizable=0;points=[];fontSize=12;fontFamily=Helvetica;fontColor=#333333;" parent="moNEwcxK6t8OCQCpNkJ9-97" vertex="1" connectable="0">
                    <mxGeometry x="0.4121" relative="1" as="geometry">
                        <mxPoint x="28" as="offset"/>
                    </mxGeometry>
                </mxCell>
                <mxCell id="moNEwcxK6t8OCQCpNkJ9-93" value="HealthChecker" style="rounded=0;whiteSpace=wrap;html=1;strokeColor=#d79b00;align=center;verticalAlign=middle;fontFamily=Helvetica;fontSize=12;fillColor=#ffe6cc;" parent="1" vertex="1">
                    <mxGeometry x="379" y="1360" width="120" height="50" as="geometry"/>
                </mxCell>
                <mxCell id="moNEwcxK6t8OCQCpNkJ9-100" value="" style="edgeStyle=orthogonalEdgeStyle;rounded=0;orthogonalLoop=1;jettySize=auto;html=1;fontFamily=Helvetica;fontSize=12;fontColor=#333333;" parent="1" source="moNEwcxK6t8OCQCpNkJ9-96" edge="1">
                    <mxGeometry relative="1" as="geometry">
                        <mxPoint x="140" y="1460" as="targetPoint"/>
                    </mxGeometry>
                </mxCell>
                <mxCell id="moNEwcxK6t8OCQCpNkJ9-96" value="MigrationManager" style="rounded=0;whiteSpace=wrap;html=1;strokeColor=#82b366;align=center;verticalAlign=middle;fontFamily=Helvetica;fontSize=12;fillColor=#d5e8d4;" parent="1" vertex="1">
                    <mxGeometry x="80" y="1360" width="120" height="50" as="geometry"/>
                </mxCell>
                <mxCell id="moNEwcxK6t8OCQCpNkJ9-105" value="" style="edgeStyle=orthogonalEdgeStyle;rounded=0;orthogonalLoop=1;jettySize=auto;html=1;fontFamily=Helvetica;fontSize=12;fontColor=#333333;" parent="1" source="moNEwcxK6t8OCQCpNkJ9-103" target="moNEwcxK6t8OCQCpNkJ9-104" edge="1">
                    <mxGeometry relative="1" as="geometry"/>
                </mxCell>
                <mxCell id="moNEwcxK6t8OCQCpNkJ9-103" value="4. Migrate executors and proxies" style="text;html=1;align=center;verticalAlign=middle;resizable=0;points=[];autosize=1;strokeColor=none;fillColor=none;fontSize=12;fontFamily=Helvetica;fontColor=#333333;" parent="1" vertex="1">
                    <mxGeometry x="40" y="1450" width="200" height="30" as="geometry"/>
                </mxCell>
                <mxCell id="moNEwcxK6t8OCQCpNkJ9-106" value="" style="edgeStyle=orthogonalEdgeStyle;rounded=0;orthogonalLoop=1;jettySize=auto;html=1;fontFamily=Helvetica;fontSize=12;fontColor=#333333;" parent="1" source="moNEwcxK6t8OCQCpNkJ9-104" target="moNEwcxK6t8OCQCpNkJ9-93" edge="1">
                    <mxGeometry relative="1" as="geometry"/>
                </mxCell>
                <mxCell id="moNEwcxK6t8OCQCpNkJ9-107" value="6. Check healthy" style="edgeLabel;html=1;align=center;verticalAlign=middle;resizable=0;points=[];fontSize=12;fontFamily=Helvetica;fontColor=#333333;" parent="moNEwcxK6t8OCQCpNkJ9-106" vertex="1" connectable="0">
                    <mxGeometry x="0.0764" relative="1" as="geometry">
                        <mxPoint as="offset"/>
                    </mxGeometry>
                </mxCell>
                <mxCell id="moNEwcxK6t8OCQCpNkJ9-104" value="5. Migrate coordinator if necessary" style="text;html=1;align=center;verticalAlign=middle;resizable=0;points=[];autosize=1;strokeColor=none;fillColor=none;fontSize=12;fontFamily=Helvetica;fontColor=#333333;" parent="1" vertex="1">
                    <mxGeometry x="334" y="1450" width="210" height="30" as="geometry"/>
                </mxCell>
                <mxCell id="moNEwcxK6t8OCQCpNkJ9-108" value="FailoverManager" style="rounded=1;whiteSpace=wrap;html=1;fillColor=#fff2cc;strokeColor=#d6b656;" parent="1" vertex="1">
                    <mxGeometry x="110" y="1600" width="400" height="60" as="geometry"/>
                </mxCell>
                <mxCell id="moNEwcxK6t8OCQCpNkJ9-113" value="" style="edgeStyle=orthogonalEdgeStyle;rounded=0;orthogonalLoop=1;jettySize=auto;html=1;fontFamily=Helvetica;fontSize=12;fontColor=#333333;entryX=0;entryY=0.5;entryDx=0;entryDy=0;entryPerimeter=0;exitX=0.5;exitY=1;exitDx=0;exitDy=0;" parent="1" source="moNEwcxK6t8OCQCpNkJ9-109" target="moNEwcxK6t8OCQCpNkJ9-111" edge="1">
                    <mxGeometry relative="1" as="geometry">
                        <mxPoint x="180" y="1820" as="targetPoint"/>
                    </mxGeometry>
                </mxCell>
                <mxCell id="moNEwcxK6t8OCQCpNkJ9-109" value="Executor states" style="rounded=1;whiteSpace=wrap;html=1;fillColor=#dae8fc;strokeColor=#6c8ebf;" parent="1" vertex="1">
                    <mxGeometry x="120" y="1690" width="120" height="60" as="geometry"/>
                </mxCell>
                <mxCell id="moNEwcxK6t8OCQCpNkJ9-111" value="Storage" style="shape=cylinder3;whiteSpace=wrap;html=1;boundedLbl=1;backgroundOutline=1;size=15;rounded=0;strokeColor=#82b366;align=center;verticalAlign=middle;fontFamily=Helvetica;fontSize=12;fillColor=#d5e8d4;" parent="1" vertex="1">
                    <mxGeometry x="280" y="1785" width="60" height="70" as="geometry"/>
                </mxCell>
                <mxCell id="moNEwcxK6t8OCQCpNkJ9-115" value="" style="rounded=0;orthogonalLoop=1;jettySize=auto;html=1;fontFamily=Helvetica;fontSize=12;fontColor=#333333;entryX=0.5;entryY=0;entryDx=0;entryDy=0;entryPerimeter=0;" parent="1" source="moNEwcxK6t8OCQCpNkJ9-114" target="moNEwcxK6t8OCQCpNkJ9-111" edge="1">
                    <mxGeometry relative="1" as="geometry"/>
                </mxCell>
                <mxCell id="moNEwcxK6t8OCQCpNkJ9-114" value="TaskRunner" style="rounded=1;whiteSpace=wrap;html=1;fillColor=#dae8fc;strokeColor=#6c8ebf;" parent="1" vertex="1">
                    <mxGeometry x="250" y="1690" width="120" height="60" as="geometry"/>
                </mxCell>
                <mxCell id="moNEwcxK6t8OCQCpNkJ9-116" value="Coordinator states" style="rounded=1;whiteSpace=wrap;html=1;fillColor=#dae8fc;strokeColor=#6c8ebf;" parent="1" vertex="1">
                    <mxGeometry x="380" y="1690" width="120" height="60" as="geometry"/>
                </mxCell>
                <mxCell id="moNEwcxK6t8OCQCpNkJ9-117" value="" style="rounded=0;orthogonalLoop=1;jettySize=auto;html=1;fontFamily=Helvetica;fontSize=12;fontColor=#333333;exitX=0.5;exitY=1;exitDx=0;exitDy=0;entryX=1;entryY=0.5;entryDx=0;entryDy=0;entryPerimeter=0;edgeStyle=orthogonalEdgeStyle;" parent="1" source="moNEwcxK6t8OCQCpNkJ9-116" target="moNEwcxK6t8OCQCpNkJ9-111" edge="1">
                    <mxGeometry relative="1" as="geometry">
                        <mxPoint x="329" y="1764" as="sourcePoint"/>
                        <mxPoint x="300" y="1820" as="targetPoint"/>
                    </mxGeometry>
                </mxCell>
                <mxCell id="moNEwcxK6t8OCQCpNkJ9-139" value="" style="edgeStyle=orthogonalEdgeStyle;rounded=0;orthogonalLoop=1;jettySize=auto;html=1;fontFamily=Helvetica;fontSize=12;fontColor=#333333;entryX=0;entryY=0.5;entryDx=0;entryDy=0;" parent="1" source="moNEwcxK6t8OCQCpNkJ9-121" target="moNEwcxK6t8OCQCpNkJ9-126" edge="1">
                    <mxGeometry relative="1" as="geometry"/>
                </mxCell>
                <mxCell id="moNEwcxK6t8OCQCpNkJ9-121" value="Client" style="shape=umlActor;verticalLabelPosition=bottom;verticalAlign=top;html=1;outlineConnect=0;rounded=0;align=center;fontFamily=Helvetica;fontSize=12;" parent="1" vertex="1">
                    <mxGeometry x="100" y="1915" width="20" height="40" as="geometry"/>
                </mxCell>
                <mxCell id="moNEwcxK6t8OCQCpNkJ9-128" value="" style="edgeStyle=orthogonalEdgeStyle;rounded=0;orthogonalLoop=1;jettySize=auto;html=1;fontFamily=Helvetica;fontSize=12;fontColor=#333333;" parent="1" source="moNEwcxK6t8OCQCpNkJ9-123" target="moNEwcxK6t8OCQCpNkJ9-127" edge="1">
                    <mxGeometry relative="1" as="geometry"/>
                </mxCell>
                <mxCell id="moNEwcxK6t8OCQCpNkJ9-123" value="Scheduler" style="rounded=1;whiteSpace=wrap;html=1;align=center;verticalAlign=middle;fontFamily=Helvetica;fontSize=12;" parent="1" vertex="1">
                    <mxGeometry x="265" y="1970" width="128" height="50" as="geometry"/>
                </mxCell>
                <mxCell id="moNEwcxK6t8OCQCpNkJ9-126" value="Router" style="rounded=1;whiteSpace=wrap;html=1;align=center;verticalAlign=middle;fontFamily=Helvetica;fontSize=12;" parent="1" vertex="1">
                    <mxGeometry x="265" y="1910" width="128" height="50" as="geometry"/>
                </mxCell>
                <mxCell id="moNEwcxK6t8OCQCpNkJ9-130" value="" style="edgeStyle=orthogonalEdgeStyle;rounded=0;orthogonalLoop=1;jettySize=auto;html=1;fontFamily=Helvetica;fontSize=12;fontColor=#333333;" parent="1" source="moNEwcxK6t8OCQCpNkJ9-127" target="moNEwcxK6t8OCQCpNkJ9-129" edge="1">
                    <mxGeometry relative="1" as="geometry"/>
                </mxCell>
                <mxCell id="moNEwcxK6t8OCQCpNkJ9-127" value="PoolManager" style="rounded=1;whiteSpace=wrap;html=1;align=center;verticalAlign=middle;fontFamily=Helvetica;fontSize=12;fillColor=#ffe6cc;strokeColor=#d79b00;" parent="1" vertex="1">
                    <mxGeometry x="170" y="2070" width="130" height="50" as="geometry"/>
                </mxCell>
                <mxCell id="moNEwcxK6t8OCQCpNkJ9-129" value="ExecutorPool" style="rounded=1;whiteSpace=wrap;html=1;align=center;verticalAlign=middle;fontFamily=Helvetica;fontSize=12;fillColor=#ffe6cc;strokeColor=#d79b00;" parent="1" vertex="1">
                    <mxGeometry x="349" y="2070" width="130" height="50" as="geometry"/>
                </mxCell>
                <mxCell id="moNEwcxK6t8OCQCpNkJ9-131" value="Executor" style="rounded=1;whiteSpace=wrap;html=1;align=center;verticalAlign=middle;fontFamily=Helvetica;fontSize=12;" parent="1" vertex="1">
                    <mxGeometry x="179" y="2170" width="120" height="50" as="geometry"/>
                </mxCell>
                <mxCell id="moNEwcxK6t8OCQCpNkJ9-133" value="Proxy" style="rounded=1;whiteSpace=wrap;html=1;align=center;verticalAlign=middle;fontFamily=Helvetica;fontSize=12;" parent="1" vertex="1">
                    <mxGeometry x="349" y="2170" width="120" height="50" as="geometry"/>
                </mxCell>
                <mxCell id="moNEwcxK6t8OCQCpNkJ9-145" value="" style="rounded=0;orthogonalLoop=1;jettySize=auto;html=1;fontFamily=Helvetica;fontSize=12;fontColor=#333333;entryX=0;entryY=0.5;entryDx=0;entryDy=0;" parent="1" source="moNEwcxK6t8OCQCpNkJ9-143" target="moNEwcxK6t8OCQCpNkJ9-126" edge="1">
                    <mxGeometry relative="1" as="geometry"/>
                </mxCell>
                <mxCell id="moNEwcxK6t8OCQCpNkJ9-143" value="Client" style="shape=umlActor;verticalLabelPosition=bottom;verticalAlign=top;html=1;outlineConnect=0;rounded=0;align=center;fontFamily=Helvetica;fontSize=12;" parent="1" vertex="1">
                    <mxGeometry x="100" y="2010" width="20" height="40" as="geometry"/>
                </mxCell>
                <mxCell id="moNEwcxK6t8OCQCpNkJ9-146" value="" style="rounded=0;orthogonalLoop=1;jettySize=auto;html=1;fontFamily=Helvetica;fontSize=12;fontColor=#333333;entryX=0;entryY=0.5;entryDx=0;entryDy=0;" parent="1" source="moNEwcxK6t8OCQCpNkJ9-144" target="moNEwcxK6t8OCQCpNkJ9-126" edge="1">
                    <mxGeometry relative="1" as="geometry"/>
                </mxCell>
                <mxCell id="moNEwcxK6t8OCQCpNkJ9-144" value="Client" style="shape=umlActor;verticalLabelPosition=bottom;verticalAlign=top;html=1;outlineConnect=0;rounded=0;align=center;fontFamily=Helvetica;fontSize=12;" parent="1" vertex="1">
                    <mxGeometry x="100" y="2100" width="20" height="40" as="geometry"/>
                </mxCell>
                <mxCell id="moNEwcxK6t8OCQCpNkJ9-147" value="Media Service" style="text;html=1;align=center;verticalAlign=middle;resizable=0;points=[];autosize=1;strokeColor=none;fillColor=none;fontSize=12;fontFamily=Helvetica;fontColor=#333333;" parent="1" vertex="1">
                    <mxGeometry x="60" y="2200" width="100" height="30" as="geometry"/>
                </mxCell>
                <mxCell id="P_zWO6fEHSI2zEw9zOE--3" value="" style="edgeStyle=none;html=1;entryX=0.5;entryY=0;entryDx=0;entryDy=0;" parent="1" source="P_zWO6fEHSI2zEw9zOE--1" target="P_zWO6fEHSI2zEw9zOE--5" edge="1">
                    <mxGeometry relative="1" as="geometry">
                        <mxPoint x="154.5" y="2540" as="targetPoint"/>
                    </mxGeometry>
                </mxCell>
                <mxCell id="P_zWO6fEHSI2zEw9zOE--13" value="" style="edgeStyle=none;html=1;entryX=0.5;entryY=0;entryDx=0;entryDy=0;" parent="1" source="P_zWO6fEHSI2zEw9zOE--1" target="P_zWO6fEHSI2zEw9zOE--8" edge="1">
                    <mxGeometry relative="1" as="geometry">
                        <mxPoint x="484.5" y="2540" as="targetPoint"/>
                    </mxGeometry>
                </mxCell>
                <mxCell id="P_zWO6fEHSI2zEw9zOE--1" value="Coordinator" style="rounded=1;whiteSpace=wrap;html=1;align=center;verticalAlign=middle;fontFamily=Helvetica;fontSize=12;" parent="1" vertex="1">
                    <mxGeometry x="240" y="2400" width="160" height="70" as="geometry"/>
                </mxCell>
                <mxCell id="P_zWO6fEHSI2zEw9zOE--5" value="Executor" style="rounded=1;whiteSpace=wrap;html=1;align=center;verticalAlign=middle;fontFamily=Helvetica;fontSize=12;" parent="1" vertex="1">
                    <mxGeometry x="40" y="2550" width="110" height="50" as="geometry"/>
                </mxCell>
                <mxCell id="P_zWO6fEHSI2zEw9zOE--6" value="Proxy" style="rounded=1;whiteSpace=wrap;html=1;align=center;verticalAlign=middle;fontFamily=Helvetica;fontSize=12;" parent="1" vertex="1">
                    <mxGeometry x="160" y="2550" width="110" height="50" as="geometry"/>
                </mxCell>
                <mxCell id="P_zWO6fEHSI2zEw9zOE--8" value="Executor" style="rounded=1;whiteSpace=wrap;html=1;align=center;verticalAlign=middle;fontFamily=Helvetica;fontSize=12;" parent="1" vertex="1">
                    <mxGeometry x="370" y="2550" width="110" height="50" as="geometry"/>
                </mxCell>
                <mxCell id="P_zWO6fEHSI2zEw9zOE--9" value="Proxy" style="rounded=1;whiteSpace=wrap;html=1;align=center;verticalAlign=middle;fontFamily=Helvetica;fontSize=12;" parent="1" vertex="1">
                    <mxGeometry x="490" y="2550" width="110" height="50" as="geometry"/>
                </mxCell>
                <mxCell id="P_zWO6fEHSI2zEw9zOE--11" value="Executor" style="rounded=1;whiteSpace=wrap;html=1;align=center;verticalAlign=middle;fontFamily=Helvetica;fontSize=12;" parent="1" vertex="1">
                    <mxGeometry x="205.5" y="2650" width="110" height="50" as="geometry"/>
                </mxCell>
                <mxCell id="P_zWO6fEHSI2zEw9zOE--12" value="Proxy" style="rounded=1;whiteSpace=wrap;html=1;align=center;verticalAlign=middle;fontFamily=Helvetica;fontSize=12;" parent="1" vertex="1">
                    <mxGeometry x="325.5" y="2650" width="110" height="50" as="geometry"/>
                </mxCell>
                <mxCell id="P_zWO6fEHSI2zEw9zOE--14" value="" style="edgeStyle=none;html=1;entryX=0.5;entryY=0;entryDx=0;entryDy=0;exitX=0.5;exitY=1;exitDx=0;exitDy=0;" parent="1" source="P_zWO6fEHSI2zEw9zOE--1" target="P_zWO6fEHSI2zEw9zOE--11" edge="1">
                    <mxGeometry relative="1" as="geometry">
                        <mxPoint x="384.83333333333326" y="2480" as="sourcePoint"/>
                        <mxPoint x="320" y="2640" as="targetPoint"/>
                    </mxGeometry>
                </mxCell>
                <mxCell id="P_zWO6fEHSI2zEw9zOE--15" value="" style="edgeStyle=none;html=1;entryX=0.5;entryY=0;entryDx=0;entryDy=0;fillColor=#f8cecc;strokeColor=#b85450;" parent="1" source="P_zWO6fEHSI2zEw9zOE--17" target="P_zWO6fEHSI2zEw9zOE--18" edge="1">
                    <mxGeometry relative="1" as="geometry">
                        <mxPoint x="857.0833333333333" y="2520" as="targetPoint"/>
                    </mxGeometry>
                </mxCell>
                <mxCell id="P_zWO6fEHSI2zEw9zOE--16" value="" style="edgeStyle=none;html=1;entryX=0.5;entryY=0;entryDx=0;entryDy=0;fillColor=#fff2cc;strokeColor=#d6b656;" parent="1" source="P_zWO6fEHSI2zEw9zOE--28" target="P_zWO6fEHSI2zEw9zOE--21" edge="1">
                    <mxGeometry relative="1" as="geometry"/>
                </mxCell>
                <mxCell id="P_zWO6fEHSI2zEw9zOE--17" value="Scheduler" style="rounded=1;whiteSpace=wrap;html=1;align=center;verticalAlign=middle;fontFamily=Helvetica;fontSize=12;fillColor=#ffe6cc;strokeColor=#d79b00;" parent="1" vertex="1">
                    <mxGeometry x="827" y="2400" width="160" height="70" as="geometry"/>
                </mxCell>
                <mxCell id="P_zWO6fEHSI2zEw9zOE--18" value="" style="rounded=0;whiteSpace=wrap;html=1;align=center;verticalAlign=middle;fontFamily=Helvetica;fontSize=12;fillColor=#ffe6cc;strokeColor=#d79b00;" parent="1" vertex="1">
                    <mxGeometry x="680" y="2540" width="251" height="70" as="geometry"/>
                </mxCell>
                <mxCell id="P_zWO6fEHSI2zEw9zOE--19" value="Executor" style="rounded=1;whiteSpace=wrap;html=1;align=center;verticalAlign=middle;fontFamily=Helvetica;fontSize=12;" parent="1" vertex="1">
                    <mxGeometry x="691" y="2550" width="110" height="50" as="geometry"/>
                </mxCell>
                <mxCell id="P_zWO6fEHSI2zEw9zOE--20" value="Proxy" style="rounded=1;whiteSpace=wrap;html=1;align=center;verticalAlign=middle;fontFamily=Helvetica;fontSize=12;" parent="1" vertex="1">
                    <mxGeometry x="811" y="2550" width="110" height="50" as="geometry"/>
                </mxCell>
                <mxCell id="P_zWO6fEHSI2zEw9zOE--21" value="" style="rounded=0;whiteSpace=wrap;html=1;align=center;verticalAlign=middle;fontFamily=Helvetica;fontSize=12;fillColor=#fff2cc;strokeColor=#d6b656;" parent="1" vertex="1">
                    <mxGeometry x="1004.5" y="2540" width="251" height="70" as="geometry"/>
                </mxCell>
                <mxCell id="P_zWO6fEHSI2zEw9zOE--22" value="Executor" style="rounded=1;whiteSpace=wrap;html=1;align=center;verticalAlign=middle;fontFamily=Helvetica;fontSize=12;" parent="1" vertex="1">
                    <mxGeometry x="1015.5" y="2550" width="110" height="50" as="geometry"/>
                </mxCell>
                <mxCell id="P_zWO6fEHSI2zEw9zOE--23" value="Proxy" style="rounded=1;whiteSpace=wrap;html=1;align=center;verticalAlign=middle;fontFamily=Helvetica;fontSize=12;" parent="1" vertex="1">
                    <mxGeometry x="1135.5" y="2550" width="110" height="50" as="geometry"/>
                </mxCell>
                <mxCell id="P_zWO6fEHSI2zEw9zOE--24" value="" style="rounded=0;whiteSpace=wrap;html=1;align=center;verticalAlign=middle;fontFamily=Helvetica;fontSize=12;fillColor=#ffe6cc;strokeColor=#d79b00;" parent="1" vertex="1">
                    <mxGeometry x="845.5" y="2640" width="251" height="70" as="geometry"/>
                </mxCell>
                <mxCell id="P_zWO6fEHSI2zEw9zOE--25" value="Executor" style="rounded=1;whiteSpace=wrap;html=1;align=center;verticalAlign=middle;fontFamily=Helvetica;fontSize=12;" parent="1" vertex="1">
                    <mxGeometry x="856.5" y="2650" width="110" height="50" as="geometry"/>
                </mxCell>
                <mxCell id="P_zWO6fEHSI2zEw9zOE--26" value="Proxy" style="rounded=1;whiteSpace=wrap;html=1;align=center;verticalAlign=middle;fontFamily=Helvetica;fontSize=12;" parent="1" vertex="1">
                    <mxGeometry x="976.5" y="2650" width="110" height="50" as="geometry"/>
                </mxCell>
                <mxCell id="P_zWO6fEHSI2zEw9zOE--27" value="" style="edgeStyle=none;html=1;entryX=0.5;entryY=0;entryDx=0;entryDy=0;exitX=0.594;exitY=0.986;exitDx=0;exitDy=0;exitPerimeter=0;fillColor=#f8cecc;strokeColor=#b85450;" parent="1" source="P_zWO6fEHSI2zEw9zOE--17" target="P_zWO6fEHSI2zEw9zOE--24" edge="1">
                    <mxGeometry relative="1" as="geometry">
                        <mxPoint x="1035.8333333333333" y="2480" as="sourcePoint"/>
                        <mxPoint x="1145.5" y="2550" as="targetPoint"/>
                    </mxGeometry>
                </mxCell>
                <mxCell id="P_zWO6fEHSI2zEw9zOE--28" value="Scheduler" style="rounded=1;whiteSpace=wrap;html=1;align=center;verticalAlign=middle;fontFamily=Helvetica;fontSize=12;fillColor=#fff2cc;strokeColor=#d6b656;" parent="1" vertex="1">
                    <mxGeometry x="1050" y="2400" width="160" height="70" as="geometry"/>
                </mxCell>
                <mxCell id="P_zWO6fEHSI2zEw9zOE--29" value="" style="rounded=0;whiteSpace=wrap;html=1;align=center;verticalAlign=middle;fontFamily=Helvetica;fontSize=12;fillColor=#fff2cc;strokeColor=#d6b656;" parent="1" vertex="1">
                    <mxGeometry x="1240" y="2640" width="251" height="70" as="geometry"/>
                </mxCell>
                <mxCell id="P_zWO6fEHSI2zEw9zOE--30" value="Executor" style="rounded=1;whiteSpace=wrap;html=1;align=center;verticalAlign=middle;fontFamily=Helvetica;fontSize=12;" parent="1" vertex="1">
                    <mxGeometry x="1251" y="2650" width="110" height="50" as="geometry"/>
                </mxCell>
                <mxCell id="P_zWO6fEHSI2zEw9zOE--31" value="Proxy" style="rounded=1;whiteSpace=wrap;html=1;align=center;verticalAlign=middle;fontFamily=Helvetica;fontSize=12;" parent="1" vertex="1">
                    <mxGeometry x="1371" y="2650" width="110" height="50" as="geometry"/>
                </mxCell>
                <mxCell id="P_zWO6fEHSI2zEw9zOE--32" value="" style="edgeStyle=none;html=1;entryX=0.5;entryY=0;entryDx=0;entryDy=0;exitX=0.694;exitY=1;exitDx=0;exitDy=0;exitPerimeter=0;fillColor=#fff2cc;strokeColor=#d6b656;" parent="1" source="P_zWO6fEHSI2zEw9zOE--28" target="P_zWO6fEHSI2zEw9zOE--29" edge="1">
                    <mxGeometry relative="1" as="geometry">
                        <mxPoint x="1171" y="2480" as="sourcePoint"/>
                        <mxPoint x="1135.5" y="2550" as="targetPoint"/>
                    </mxGeometry>
                </mxCell>
                <mxCell id="P_zWO6fEHSI2zEw9zOE--33" value="" style="edgeStyle=none;html=1;entryX=0.5;entryY=0;entryDx=0;entryDy=0;exitX=0.25;exitY=1;exitDx=0;exitDy=0;" parent="1" source="P_zWO6fEHSI2zEw9zOE--1" target="P_zWO6fEHSI2zEw9zOE--6" edge="1">
                    <mxGeometry relative="1" as="geometry">
                        <mxPoint x="261.52173913043475" y="2480" as="sourcePoint"/>
                        <mxPoint x="105" y="2560" as="targetPoint"/>
                    </mxGeometry>
                </mxCell>
                <mxCell id="P_zWO6fEHSI2zEw9zOE--34" value="" style="edgeStyle=none;html=1;entryX=0.5;entryY=0;entryDx=0;entryDy=0;exitX=0.575;exitY=1.014;exitDx=0;exitDy=0;exitPerimeter=0;" parent="1" source="P_zWO6fEHSI2zEw9zOE--1" target="P_zWO6fEHSI2zEw9zOE--12" edge="1">
                    <mxGeometry relative="1" as="geometry">
                        <mxPoint x="330" y="2480" as="sourcePoint"/>
                        <mxPoint x="330" y="2650" as="targetPoint"/>
                    </mxGeometry>
                </mxCell>
                <mxCell id="P_zWO6fEHSI2zEw9zOE--35" value="" style="edgeStyle=none;html=1;entryX=0.5;entryY=0;entryDx=0;entryDy=0;exitX=0.9;exitY=0.986;exitDx=0;exitDy=0;exitPerimeter=0;" parent="1" source="P_zWO6fEHSI2zEw9zOE--1" target="P_zWO6fEHSI2zEw9zOE--9" edge="1">
                    <mxGeometry relative="1" as="geometry">
                        <mxPoint x="384.83333333333326" y="2480" as="sourcePoint"/>
                        <mxPoint x="494.5" y="2550" as="targetPoint"/>
                    </mxGeometry>
                </mxCell>
                <mxCell id="P_zWO6fEHSI2zEw9zOE--37" value="" style="endArrow=classic;html=1;dashed=1;entryX=0.25;entryY=1;entryDx=0;entryDy=0;exitX=0.026;exitY=-0.029;exitDx=0;exitDy=0;exitPerimeter=0;" parent="1" source="P_zWO6fEHSI2zEw9zOE--36" target="P_zWO6fEHSI2zEw9zOE--18" edge="1">
                    <mxGeometry width="50" height="50" relative="1" as="geometry">
                        <mxPoint x="743" y="2740" as="sourcePoint"/>
                        <mxPoint x="1090" y="2440" as="targetPoint"/>
                    </mxGeometry>
                </mxCell>
                <mxCell id="P_zWO6fEHSI2zEw9zOE--38" value="" style="endArrow=classic;html=1;dashed=1;entryX=0.5;entryY=1;entryDx=0;entryDy=0;" parent="1" target="P_zWO6fEHSI2zEw9zOE--24" edge="1">
                    <mxGeometry width="50" height="50" relative="1" as="geometry">
                        <mxPoint x="971" y="2750" as="sourcePoint"/>
                        <mxPoint x="752.75" y="2620" as="targetPoint"/>
                    </mxGeometry>
                </mxCell>
                <mxCell id="P_zWO6fEHSI2zEw9zOE--39" value="" style="endArrow=classic;html=1;dashed=1;entryX=0.5;entryY=1;entryDx=0;entryDy=0;" parent="1" target="P_zWO6fEHSI2zEw9zOE--21" edge="1">
                    <mxGeometry width="50" height="50" relative="1" as="geometry">
                        <mxPoint x="1130" y="2750" as="sourcePoint"/>
                        <mxPoint x="981" y="2720.0000000000005" as="targetPoint"/>
                    </mxGeometry>
                </mxCell>
                <mxCell id="P_zWO6fEHSI2zEw9zOE--40" value="" style="endArrow=classic;html=1;dashed=1;entryX=0.5;entryY=1;entryDx=0;entryDy=0;exitX=0.769;exitY=-0.014;exitDx=0;exitDy=0;exitPerimeter=0;" parent="1" source="P_zWO6fEHSI2zEw9zOE--36" target="P_zWO6fEHSI2zEw9zOE--29" edge="1">
                    <mxGeometry width="50" height="50" relative="1" as="geometry">
                        <mxPoint x="1136.8000000000002" y="2759.93" as="sourcePoint"/>
                        <mxPoint x="1135.5" y="2620" as="targetPoint"/>
                    </mxGeometry>
                </mxCell>
                <mxCell id="P_zWO6fEHSI2zEw9zOE--44" value="" style="html=1;dashed=1;entryX=0.75;entryY=0;entryDx=0;entryDy=0;elbow=vertical;exitX=0.25;exitY=1;exitDx=0;exitDy=0;fillColor=#ffe6cc;strokeColor=#d79b00;" parent="1" source="P_zWO6fEHSI2zEw9zOE--41" target="P_zWO6fEHSI2zEw9zOE--18" edge="1">
                    <mxGeometry relative="1" as="geometry">
                        <mxPoint x="1401" y="2550" as="targetPoint"/>
                    </mxGeometry>
                </mxCell>
                <mxCell id="P_zWO6fEHSI2zEw9zOE--41" value="Stator" style="rounded=1;whiteSpace=wrap;html=1;align=center;verticalAlign=middle;fontFamily=Helvetica;fontSize=12;fillColor=#ffe6cc;strokeColor=#d79b00;" parent="1" vertex="1">
                    <mxGeometry x="1270" y="2400" width="160" height="70" as="geometry"/>
                </mxCell>
                <mxCell id="P_zWO6fEHSI2zEw9zOE--42" value="Stator" style="rounded=1;whiteSpace=wrap;html=1;align=center;verticalAlign=middle;fontFamily=Helvetica;fontSize=12;fillColor=#fff2cc;strokeColor=#d6b656;" parent="1" vertex="1">
                    <mxGeometry x="1491" y="2400" width="160" height="70" as="geometry"/>
                </mxCell>
                <mxCell id="P_zWO6fEHSI2zEw9zOE--45" value="" style="html=1;dashed=1;entryX=0.75;entryY=0;entryDx=0;entryDy=0;elbow=vertical;exitX=0.5;exitY=1;exitDx=0;exitDy=0;fillColor=#ffe6cc;strokeColor=#d79b00;" parent="1" source="P_zWO6fEHSI2zEw9zOE--41" target="P_zWO6fEHSI2zEw9zOE--21" edge="1">
                    <mxGeometry relative="1" as="geometry">
                        <mxPoint x="1411" y="2480" as="sourcePoint"/>
                        <mxPoint x="878.25" y="2550" as="targetPoint"/>
                    </mxGeometry>
                </mxCell>
                <mxCell id="P_zWO6fEHSI2zEw9zOE--46" value="" style="html=1;dashed=1;entryX=1;entryY=0.5;entryDx=0;entryDy=0;elbow=vertical;exitX=0.25;exitY=1;exitDx=0;exitDy=0;fillColor=#fff2cc;strokeColor=#d6b656;" parent="1" source="P_zWO6fEHSI2zEw9zOE--42" target="P_zWO6fEHSI2zEw9zOE--24" edge="1">
                    <mxGeometry relative="1" as="geometry">
                        <mxPoint x="1411" y="2480" as="sourcePoint"/>
                        <mxPoint x="1198.25" y="2550" as="targetPoint"/>
                    </mxGeometry>
                </mxCell>
                <mxCell id="P_zWO6fEHSI2zEw9zOE--47" value="" style="html=1;dashed=1;entryX=1;entryY=0.5;entryDx=0;entryDy=0;elbow=vertical;exitX=0.75;exitY=1;exitDx=0;exitDy=0;fillColor=#fff2cc;strokeColor=#d6b656;" parent="1" source="P_zWO6fEHSI2zEw9zOE--42" target="P_zWO6fEHSI2zEw9zOE--29" edge="1">
                    <mxGeometry relative="1" as="geometry">
                        <mxPoint x="1570" y="2480" as="sourcePoint"/>
                        <mxPoint x="1106.5" y="2685" as="targetPoint"/>
                    </mxGeometry>
                </mxCell>
                <mxCell id="oHwJVF8VB4xXm1WmHKps-1" value="MediaService" style="rounded=0;whiteSpace=wrap;html=1;" vertex="1" parent="1">
                    <mxGeometry x="120" y="2850" width="480" height="72" as="geometry"/>
                </mxCell>
                <mxCell id="oHwJVF8VB4xXm1WmHKps-3" value="Scheduler" style="rounded=1;whiteSpace=wrap;html=1;" vertex="1" parent="1">
                    <mxGeometry x="130" y="2970" width="120" height="60" as="geometry"/>
                </mxCell>
                <mxCell id="oHwJVF8VB4xXm1WmHKps-4" value="Stator" style="rounded=1;whiteSpace=wrap;html=1;" vertex="1" parent="1">
                    <mxGeometry x="305.5" y="2970" width="120" height="60" as="geometry"/>
                </mxCell>
                <mxCell id="oHwJVF8VB4xXm1WmHKps-5" value="Scheduler" style="rounded=1;whiteSpace=wrap;html=1;" vertex="1" parent="1">
                    <mxGeometry x="140" y="2980" width="120" height="60" as="geometry"/>
                </mxCell>
                <mxCell id="oHwJVF8VB4xXm1WmHKps-6" value="Scheduler" style="rounded=1;whiteSpace=wrap;html=1;" vertex="1" parent="1">
                    <mxGeometry x="150" y="2990" width="120" height="60" as="geometry"/>
                </mxCell>
                <mxCell id="oHwJVF8VB4xXm1WmHKps-7" value="Stator" style="rounded=1;whiteSpace=wrap;html=1;" vertex="1" parent="1">
                    <mxGeometry x="315.5" y="2980" width="120" height="60" as="geometry"/>
                </mxCell>
                <mxCell id="oHwJVF8VB4xXm1WmHKps-37" value="" style="edgeStyle=none;html=1;strokeWidth=1;dashed=1;entryX=0.5;entryY=0;entryDx=0;entryDy=0;" edge="1" parent="1" source="oHwJVF8VB4xXm1WmHKps-8" target="oHwJVF8VB4xXm1WmHKps-33">
                    <mxGeometry relative="1" as="geometry"/>
                </mxCell>
                <mxCell id="oHwJVF8VB4xXm1WmHKps-8" value="Stator" style="rounded=1;whiteSpace=wrap;html=1;" vertex="1" parent="1">
                    <mxGeometry x="325.5" y="2990" width="120" height="60" as="geometry"/>
                </mxCell>
                <mxCell id="oHwJVF8VB4xXm1WmHKps-21" value="" style="edgeStyle=none;html=1;entryX=0.5;entryY=0;entryDx=0;entryDy=0;exitX=0.5;exitY=1;exitDx=0;exitDy=0;" edge="1" parent="1" source="oHwJVF8VB4xXm1WmHKps-6" target="oHwJVF8VB4xXm1WmHKps-32">
                    <mxGeometry relative="1" as="geometry">
                        <mxPoint x="205" y="3059.9999999999995" as="sourcePoint"/>
                        <mxPoint x="305" y="3079.9999999999995" as="targetPoint"/>
                    </mxGeometry>
                </mxCell>
                <mxCell id="oHwJVF8VB4xXm1WmHKps-22" value="" style="edgeStyle=none;html=1;entryX=0.25;entryY=0;entryDx=0;entryDy=0;" edge="1" parent="1" target="oHwJVF8VB4xXm1WmHKps-33">
                    <mxGeometry relative="1" as="geometry">
                        <mxPoint x="240" y="3050" as="sourcePoint"/>
                        <mxPoint x="380.5" y="3079.9999999999995" as="targetPoint"/>
                    </mxGeometry>
                </mxCell>
                <mxCell id="oHwJVF8VB4xXm1WmHKps-23" value="Executor" style="rounded=1;whiteSpace=wrap;html=1;align=center;verticalAlign=middle;fontFamily=Helvetica;fontSize=12;" vertex="1" parent="1">
                    <mxGeometry x="140" y="3160" width="110" height="40" as="geometry"/>
                </mxCell>
                <mxCell id="oHwJVF8VB4xXm1WmHKps-30" value="Executor" style="rounded=1;whiteSpace=wrap;html=1;align=center;verticalAlign=middle;fontFamily=Helvetica;fontSize=12;" vertex="1" parent="1">
                    <mxGeometry x="140" y="3120" width="110" height="40" as="geometry"/>
                </mxCell>
                <mxCell id="oHwJVF8VB4xXm1WmHKps-31" value="Executor" style="rounded=1;whiteSpace=wrap;html=1;align=center;verticalAlign=middle;fontFamily=Helvetica;fontSize=12;" vertex="1" parent="1">
                    <mxGeometry x="140" y="3080" width="110" height="40" as="geometry"/>
                </mxCell>
                <mxCell id="oHwJVF8VB4xXm1WmHKps-33" value="" style="rounded=0;whiteSpace=wrap;html=1;" vertex="1" parent="1">
                    <mxGeometry x="325.5" y="3070" width="110" height="130" as="geometry"/>
                </mxCell>
                <mxCell id="oHwJVF8VB4xXm1WmHKps-34" value="Proxy" style="rounded=1;whiteSpace=wrap;html=1;align=center;verticalAlign=middle;fontFamily=Helvetica;fontSize=12;" vertex="1" parent="1">
                    <mxGeometry x="325.5" y="3160" width="110" height="40" as="geometry"/>
                </mxCell>
                <mxCell id="oHwJVF8VB4xXm1WmHKps-35" value="Proxy" style="rounded=1;whiteSpace=wrap;html=1;align=center;verticalAlign=middle;fontFamily=Helvetica;fontSize=12;" vertex="1" parent="1">
                    <mxGeometry x="325.5" y="3120" width="110" height="40" as="geometry"/>
                </mxCell>
                <mxCell id="oHwJVF8VB4xXm1WmHKps-36" value="Proxy" style="rounded=1;whiteSpace=wrap;html=1;align=center;verticalAlign=middle;fontFamily=Helvetica;fontSize=12;" vertex="1" parent="1">
                    <mxGeometry x="325.5" y="3080" width="110" height="40" as="geometry"/>
                </mxCell>
                <mxCell id="oHwJVF8VB4xXm1WmHKps-38" value="" style="edgeStyle=none;html=1;strokeWidth=1;dashed=1;entryX=0.75;entryY=0;entryDx=0;entryDy=0;exitX=0.25;exitY=1;exitDx=0;exitDy=0;" edge="1" parent="1" source="oHwJVF8VB4xXm1WmHKps-8" target="oHwJVF8VB4xXm1WmHKps-32">
                    <mxGeometry relative="1" as="geometry">
                        <mxPoint x="392.5" y="3059.9999999999995" as="sourcePoint"/>
                        <mxPoint x="390.5" y="3079.9999999999995" as="targetPoint"/>
                    </mxGeometry>
                </mxCell>
                <mxCell id="oHwJVF8VB4xXm1WmHKps-39" value="" style="rounded=0;whiteSpace=wrap;html=1;" vertex="1" parent="1">
                    <mxGeometry x="130" y="2970" width="340" height="250" as="geometry"/>
                </mxCell>
                <mxCell id="oHwJVF8VB4xXm1WmHKps-40" value="" style="rounded=0;whiteSpace=wrap;html=1;" vertex="1" parent="1">
                    <mxGeometry x="150" y="3080" width="110" height="130" as="geometry"/>
                </mxCell>
                <mxCell id="oHwJVF8VB4xXm1WmHKps-41" value="Scheduler" style="rounded=1;whiteSpace=wrap;html=1;" vertex="1" parent="1">
                    <mxGeometry x="140" y="2980" width="120" height="60" as="geometry"/>
                </mxCell>
                <mxCell id="oHwJVF8VB4xXm1WmHKps-42" value="Stator" style="rounded=1;whiteSpace=wrap;html=1;" vertex="1" parent="1">
                    <mxGeometry x="315.5" y="2980" width="120" height="60" as="geometry"/>
                </mxCell>
                <mxCell id="oHwJVF8VB4xXm1WmHKps-43" value="Scheduler" style="rounded=1;whiteSpace=wrap;html=1;" vertex="1" parent="1">
                    <mxGeometry x="150" y="2990" width="120" height="60" as="geometry"/>
                </mxCell>
                <mxCell id="oHwJVF8VB4xXm1WmHKps-44" value="Scheduler" style="rounded=1;whiteSpace=wrap;html=1;" vertex="1" parent="1">
                    <mxGeometry x="160" y="3000" width="120" height="60" as="geometry"/>
                </mxCell>
                <mxCell id="oHwJVF8VB4xXm1WmHKps-45" value="Stator" style="rounded=1;whiteSpace=wrap;html=1;" vertex="1" parent="1">
                    <mxGeometry x="325.5" y="2990" width="120" height="60" as="geometry"/>
                </mxCell>
                <mxCell id="oHwJVF8VB4xXm1WmHKps-46" value="" style="edgeStyle=none;html=1;strokeWidth=1;dashed=1;entryX=0.5;entryY=0;entryDx=0;entryDy=0;" edge="1" parent="1" source="oHwJVF8VB4xXm1WmHKps-47" target="oHwJVF8VB4xXm1WmHKps-53">
                    <mxGeometry relative="1" as="geometry"/>
                </mxCell>
                <mxCell id="oHwJVF8VB4xXm1WmHKps-47" value="Stator" style="rounded=1;whiteSpace=wrap;html=1;" vertex="1" parent="1">
                    <mxGeometry x="335.5" y="3000" width="120" height="60" as="geometry"/>
                </mxCell>
                <mxCell id="oHwJVF8VB4xXm1WmHKps-48" value="" style="edgeStyle=none;html=1;entryX=0.5;entryY=0;entryDx=0;entryDy=0;exitX=0.5;exitY=1;exitDx=0;exitDy=0;" edge="1" parent="1" source="oHwJVF8VB4xXm1WmHKps-44" target="oHwJVF8VB4xXm1WmHKps-40">
                    <mxGeometry relative="1" as="geometry">
                        <mxPoint x="215" y="3069.9999999999995" as="sourcePoint"/>
                        <mxPoint x="315" y="3089.9999999999995" as="targetPoint"/>
                    </mxGeometry>
                </mxCell>
                <mxCell id="oHwJVF8VB4xXm1WmHKps-49" value="" style="edgeStyle=none;html=1;entryX=0.25;entryY=0;entryDx=0;entryDy=0;" edge="1" parent="1" target="oHwJVF8VB4xXm1WmHKps-53">
                    <mxGeometry relative="1" as="geometry">
                        <mxPoint x="250" y="3059.9999999999995" as="sourcePoint"/>
                        <mxPoint x="390.5" y="3089.9999999999995" as="targetPoint"/>
                    </mxGeometry>
                </mxCell>
                <mxCell id="oHwJVF8VB4xXm1WmHKps-50" value="Executor" style="rounded=1;whiteSpace=wrap;html=1;align=center;verticalAlign=middle;fontFamily=Helvetica;fontSize=12;" vertex="1" parent="1">
                    <mxGeometry x="150" y="3170" width="110" height="40" as="geometry"/>
                </mxCell>
                <mxCell id="oHwJVF8VB4xXm1WmHKps-51" value="Executor" style="rounded=1;whiteSpace=wrap;html=1;align=center;verticalAlign=middle;fontFamily=Helvetica;fontSize=12;" vertex="1" parent="1">
                    <mxGeometry x="150" y="3130" width="110" height="40" as="geometry"/>
                </mxCell>
                <mxCell id="oHwJVF8VB4xXm1WmHKps-52" value="Executor" style="rounded=1;whiteSpace=wrap;html=1;align=center;verticalAlign=middle;fontFamily=Helvetica;fontSize=12;" vertex="1" parent="1">
                    <mxGeometry x="150" y="3090" width="110" height="40" as="geometry"/>
                </mxCell>
                <mxCell id="oHwJVF8VB4xXm1WmHKps-53" value="" style="rounded=0;whiteSpace=wrap;html=1;" vertex="1" parent="1">
                    <mxGeometry x="335.5" y="3080" width="110" height="130" as="geometry"/>
                </mxCell>
                <mxCell id="oHwJVF8VB4xXm1WmHKps-54" value="Proxy" style="rounded=1;whiteSpace=wrap;html=1;align=center;verticalAlign=middle;fontFamily=Helvetica;fontSize=12;" vertex="1" parent="1">
                    <mxGeometry x="335.5" y="3170" width="110" height="40" as="geometry"/>
                </mxCell>
                <mxCell id="oHwJVF8VB4xXm1WmHKps-55" value="Proxy" style="rounded=1;whiteSpace=wrap;html=1;align=center;verticalAlign=middle;fontFamily=Helvetica;fontSize=12;" vertex="1" parent="1">
                    <mxGeometry x="335.5" y="3130" width="110" height="40" as="geometry"/>
                </mxCell>
                <mxCell id="oHwJVF8VB4xXm1WmHKps-56" value="Proxy" style="rounded=1;whiteSpace=wrap;html=1;align=center;verticalAlign=middle;fontFamily=Helvetica;fontSize=12;" vertex="1" parent="1">
                    <mxGeometry x="335.5" y="3090" width="110" height="40" as="geometry"/>
                </mxCell>
                <mxCell id="oHwJVF8VB4xXm1WmHKps-57" value="" style="edgeStyle=none;html=1;strokeWidth=1;dashed=1;entryX=0.75;entryY=0;entryDx=0;entryDy=0;exitX=0.25;exitY=1;exitDx=0;exitDy=0;" edge="1" parent="1" source="oHwJVF8VB4xXm1WmHKps-47" target="oHwJVF8VB4xXm1WmHKps-40">
                    <mxGeometry relative="1" as="geometry">
                        <mxPoint x="402.5" y="3069.9999999999995" as="sourcePoint"/>
                        <mxPoint x="400.5" y="3089.9999999999995" as="targetPoint"/>
                    </mxGeometry>
                </mxCell>
                <mxCell id="oHwJVF8VB4xXm1WmHKps-58" value="" style="rounded=0;whiteSpace=wrap;html=1;" vertex="1" parent="1">
                    <mxGeometry x="140" y="2980" width="340" height="250" as="geometry"/>
                </mxCell>
                <mxCell id="oHwJVF8VB4xXm1WmHKps-59" value="" style="rounded=0;whiteSpace=wrap;html=1;" vertex="1" parent="1">
                    <mxGeometry x="160" y="3090" width="110" height="130" as="geometry"/>
                </mxCell>
                <mxCell id="oHwJVF8VB4xXm1WmHKps-60" value="Scheduler" style="rounded=1;whiteSpace=wrap;html=1;" vertex="1" parent="1">
                    <mxGeometry x="150" y="2990" width="120" height="60" as="geometry"/>
                </mxCell>
                <mxCell id="oHwJVF8VB4xXm1WmHKps-61" value="Stator" style="rounded=1;whiteSpace=wrap;html=1;" vertex="1" parent="1">
                    <mxGeometry x="325.5" y="2990" width="120" height="60" as="geometry"/>
                </mxCell>
                <mxCell id="oHwJVF8VB4xXm1WmHKps-62" value="Scheduler" style="rounded=1;whiteSpace=wrap;html=1;" vertex="1" parent="1">
                    <mxGeometry x="160" y="3000" width="120" height="60" as="geometry"/>
                </mxCell>
                <mxCell id="oHwJVF8VB4xXm1WmHKps-63" value="Scheduler" style="rounded=1;whiteSpace=wrap;html=1;" vertex="1" parent="1">
                    <mxGeometry x="170" y="3010" width="120" height="60" as="geometry"/>
                </mxCell>
                <mxCell id="oHwJVF8VB4xXm1WmHKps-64" value="Stator" style="rounded=1;whiteSpace=wrap;html=1;" vertex="1" parent="1">
                    <mxGeometry x="335.5" y="3000" width="120" height="60" as="geometry"/>
                </mxCell>
                <mxCell id="oHwJVF8VB4xXm1WmHKps-65" value="" style="edgeStyle=none;html=1;strokeWidth=1;dashed=1;entryX=0.5;entryY=0;entryDx=0;entryDy=0;" edge="1" parent="1" source="oHwJVF8VB4xXm1WmHKps-66" target="oHwJVF8VB4xXm1WmHKps-72">
                    <mxGeometry relative="1" as="geometry"/>
                </mxCell>
                <mxCell id="oHwJVF8VB4xXm1WmHKps-66" value="Stator" style="rounded=1;whiteSpace=wrap;html=1;" vertex="1" parent="1">
                    <mxGeometry x="345.5" y="3010" width="120" height="60" as="geometry"/>
                </mxCell>
                <mxCell id="oHwJVF8VB4xXm1WmHKps-67" value="" style="edgeStyle=none;html=1;entryX=0.5;entryY=0;entryDx=0;entryDy=0;exitX=0.5;exitY=1;exitDx=0;exitDy=0;" edge="1" parent="1" source="oHwJVF8VB4xXm1WmHKps-63" target="oHwJVF8VB4xXm1WmHKps-59">
                    <mxGeometry relative="1" as="geometry">
                        <mxPoint x="225" y="3079.9999999999995" as="sourcePoint"/>
                        <mxPoint x="325" y="3099.9999999999995" as="targetPoint"/>
                    </mxGeometry>
                </mxCell>
                <mxCell id="oHwJVF8VB4xXm1WmHKps-68" value="" style="edgeStyle=none;html=1;entryX=0.25;entryY=0;entryDx=0;entryDy=0;" edge="1" parent="1" target="oHwJVF8VB4xXm1WmHKps-72">
                    <mxGeometry relative="1" as="geometry">
                        <mxPoint x="260" y="3069.9999999999995" as="sourcePoint"/>
                        <mxPoint x="400.5" y="3099.9999999999995" as="targetPoint"/>
                    </mxGeometry>
                </mxCell>
                <mxCell id="oHwJVF8VB4xXm1WmHKps-69" value="Executor" style="rounded=1;whiteSpace=wrap;html=1;align=center;verticalAlign=middle;fontFamily=Helvetica;fontSize=12;" vertex="1" parent="1">
                    <mxGeometry x="160" y="3180" width="110" height="40" as="geometry"/>
                </mxCell>
                <mxCell id="oHwJVF8VB4xXm1WmHKps-70" value="Executor" style="rounded=1;whiteSpace=wrap;html=1;align=center;verticalAlign=middle;fontFamily=Helvetica;fontSize=12;" vertex="1" parent="1">
                    <mxGeometry x="160" y="3140" width="110" height="40" as="geometry"/>
                </mxCell>
                <mxCell id="oHwJVF8VB4xXm1WmHKps-71" value="Executor" style="rounded=1;whiteSpace=wrap;html=1;align=center;verticalAlign=middle;fontFamily=Helvetica;fontSize=12;" vertex="1" parent="1">
                    <mxGeometry x="160" y="3100" width="110" height="40" as="geometry"/>
                </mxCell>
                <mxCell id="oHwJVF8VB4xXm1WmHKps-72" value="" style="rounded=0;whiteSpace=wrap;html=1;" vertex="1" parent="1">
                    <mxGeometry x="345.5" y="3090" width="110" height="130" as="geometry"/>
                </mxCell>
                <mxCell id="oHwJVF8VB4xXm1WmHKps-73" value="Proxy" style="rounded=1;whiteSpace=wrap;html=1;align=center;verticalAlign=middle;fontFamily=Helvetica;fontSize=12;" vertex="1" parent="1">
                    <mxGeometry x="345.5" y="3180" width="110" height="40" as="geometry"/>
                </mxCell>
                <mxCell id="oHwJVF8VB4xXm1WmHKps-74" value="Proxy" style="rounded=1;whiteSpace=wrap;html=1;align=center;verticalAlign=middle;fontFamily=Helvetica;fontSize=12;" vertex="1" parent="1">
                    <mxGeometry x="345.5" y="3140" width="110" height="40" as="geometry"/>
                </mxCell>
                <mxCell id="oHwJVF8VB4xXm1WmHKps-75" value="Proxy" style="rounded=1;whiteSpace=wrap;html=1;align=center;verticalAlign=middle;fontFamily=Helvetica;fontSize=12;" vertex="1" parent="1">
                    <mxGeometry x="345.5" y="3100" width="110" height="40" as="geometry"/>
                </mxCell>
                <mxCell id="oHwJVF8VB4xXm1WmHKps-76" value="" style="edgeStyle=none;html=1;strokeWidth=1;dashed=1;entryX=0.75;entryY=0;entryDx=0;entryDy=0;exitX=0.25;exitY=1;exitDx=0;exitDy=0;" edge="1" parent="1" source="oHwJVF8VB4xXm1WmHKps-66" target="oHwJVF8VB4xXm1WmHKps-59">
                    <mxGeometry relative="1" as="geometry">
                        <mxPoint x="412.5" y="3079.9999999999995" as="sourcePoint"/>
                        <mxPoint x="410.5" y="3099.9999999999995" as="targetPoint"/>
                    </mxGeometry>
                </mxCell>
                <mxCell id="oHwJVF8VB4xXm1WmHKps-77" value="高可用" style="rounded=0;whiteSpace=wrap;html=1;strokeWidth=1;" vertex="1" parent="1">
                    <mxGeometry x="520" y="2960" width="80" height="270" as="geometry"/>
                </mxCell>
            </root>
        </mxGraphModel>
    </diagram>
</mxfile>